<svg width="344" height="62" viewBox="0 0 344 62" fill="none" xmlns="http://www.w3.org/2000/svg">
<path d="M101.819 57.1097C91.4687 57.1097 84.2188 49.5797 84.2188 38.8997C84.2188 28.2197 91.4687 20.6397 101.819 20.6897C106.709 20.6897 111.089 22.7597 114.239 26.0097L109.679 31.0497C108.029 28.5997 104.979 26.9097 101.779 26.9097C95.3787 26.8597 91.3787 31.4697 91.3787 38.9097C91.3787 46.3497 95.3787 50.9097 101.779 50.9097C105.539 50.9097 107.989 48.9297 109.359 47.0497L114.249 51.7997C111.099 55.0497 107.289 57.2097 101.829 57.1197L101.819 57.1097Z" fill="black"/>
<path d="M117.988 21.0605H125.138V56.7305H117.988V21.0605Z" fill="black"/>
<path d="M141.209 51.1801C144.599 51.1801 147.329 48.0301 147.369 43.9801C147.319 39.9301 144.589 36.7801 141.209 36.7801C137.829 36.7801 135.519 39.5601 135.519 43.9801C135.519 48.4001 137.729 51.1801 141.209 51.1801ZM128.359 43.9801C128.359 36.4501 133.349 31.1301 140.449 31.1301C143.039 31.1301 145.579 32.2601 147.369 34.3301V31.0801H154.519V56.7301L147.369 56.7801V53.6701C145.579 55.6901 143.039 56.8201 140.449 56.8201C133.349 56.8201 128.359 51.5001 128.359 43.9701V43.9801Z" fill="black"/>
<path d="M163.581 48.5409C164.941 50.1409 167.111 51.3209 168.761 51.3609C170.781 51.4109 172.291 50.4709 172.341 49.0109C172.431 46.7009 159.401 46.6109 159.681 38.6109C159.821 33.9509 164.011 30.8509 169.841 31.0309C172.901 31.1709 176.471 32.8709 178.451 35.2209L173.891 39.1309C172.761 37.8109 171.021 36.8209 169.661 36.7809C168.011 36.7309 166.881 37.4909 166.841 38.6609C166.751 41.3009 179.781 41.0609 179.501 49.1109C179.311 54.0509 174.841 57.3009 168.591 57.1109C165.201 56.9709 161.201 55.0409 158.941 52.4009L163.601 48.5409H163.581Z" fill="black"/>
<path d="M200.28 55.3193C198.87 55.9793 197.74 56.8293 194.12 56.8293C189.32 56.8293 185.98 53.1593 185.98 47.8893V37.6793H181.32V31.5593H185.98V24.0293H193.13V31.5593H199.58V37.6793H193.13V47.8893C193.13 49.3993 193.88 50.5693 194.97 50.7093C196.38 50.8493 197.79 49.8593 197.79 49.8593L200.28 55.3193Z" fill="black"/>
<path d="M232.709 57.1097C222.359 57.1097 215.109 49.5797 215.109 38.8997C215.109 28.2197 222.359 20.6397 232.709 20.6897C237.599 20.6897 241.979 22.7597 245.129 26.0097L240.569 31.0497C238.919 28.5997 235.869 26.9097 232.669 26.9097C226.269 26.8597 222.269 31.4697 222.269 38.9097C222.269 46.3497 226.269 50.9097 232.669 50.9097C236.429 50.9097 238.879 48.9297 240.239 47.0497L245.129 51.7997C241.979 55.0497 238.169 57.2097 232.709 57.1197V57.1097Z" fill="black"/>
<path d="M248.891 21.0605H256.041V56.7305H248.891V21.0605Z" fill="black"/>
<path d="M271.822 51.1309C275.162 51.1309 277.232 48.4009 277.232 44.0209C277.232 39.6409 275.162 36.8709 271.822 36.8709C268.482 36.8709 266.412 39.6509 266.412 44.0209C266.412 48.3909 268.482 51.1309 271.822 51.1309ZM259.262 44.0209C259.262 36.4409 264.432 31.1309 271.822 31.1309C279.212 31.1309 284.382 36.4509 284.382 44.0209C284.382 51.5909 279.212 56.8709 271.822 56.8709C264.432 56.8709 259.262 51.5509 259.262 44.0209Z" fill="black"/>
<path d="M295.701 44.6801C295.701 48.6801 298.011 50.9901 301.301 50.9901C304.501 50.9401 306.661 48.1201 306.521 44.2101V31.0801H313.671V56.7301H306.521V52.6401C305.301 54.9901 302.621 56.6901 300.081 56.6901C293.301 56.6901 288.551 52.0301 288.551 44.6901V31.0901H295.701V44.6901V44.6801Z" fill="black"/>
<path d="M329.89 56.7805C322.79 56.7805 317.75 51.4605 317.75 43.9305C317.75 36.4005 322.78 31.0405 329.89 31.0405C330.69 31.0405 334.5 31.1305 336.85 34.2405V21.0605H344V56.7805H336.85V53.6705C334.5 56.3505 330.69 56.7805 329.89 56.7805ZM324.9 44.1205C324.9 48.5405 327.06 51.3205 330.55 51.3205C334.04 51.3205 336.85 48.1705 336.85 44.1205C336.85 40.0705 334.07 36.8705 330.55 36.8705C327.03 36.8705 324.9 39.6505 324.9 44.1205Z" fill="black"/>
<path d="M40 31H31C32.22 20.61 40.6456 14.9599 51.2256 15.0299C63.2156 14.9699 72.0356 24.7099 72.0356 37.7699C72.0356 52.4999 63.0856 61.5299 50.9656 61.5299C38.8456 61.5299 32.2956 54.9399 31.2656 46.5899C35.9456 44.6699 37.4756 42.5999 40.3356 37.6199C40.0556 41.0699 39.7256 42.0399 40.3356 45.5899C41.2356 50.3699 45.5556 53.1799 50.7156 53.2399C57.7456 53.1799 62.4356 47.5299 62.3756 37.7699C62.4356 29.9399 58.0656 23.2599 50.9756 23.3199C45.6856 23.2599 41.21 25.96 40.5 31H40Z" fill="url(#paint0_linear_484_47)"/>
<path d="M31.5 31H40.5C39.28 41.39 31.39 47.0993 20.81 47.0293C8.82 47.0893 0 37.3493 0 24.2893C0 9.5593 8.95 0.529297 21.07 0.529297C33.19 0.529297 39.74 7.1193 40.77 15.4693C36.09 17.3893 34.56 19.4593 31.7 24.4393C31.98 20.9893 32.31 20.0193 31.7 16.4693C30.8 11.6893 26.48 8.8793 21.32 8.8193C14.29 8.8793 9.6 14.5293 9.66 24.2893C9.6 32.1193 13.98 38.6993 21.07 38.6393C26.36 38.6993 30.29 36.04 31 31H31.5Z" fill="url(#paint1_linear_484_47)"/>
<path d="M178.898 5.08C179.928 5.08 180.588 4.34 180.588 3.22C180.588 2.1 179.908 1.35 178.888 1.35H176.458V5.08H178.898ZM174.898 9.67V0H178.958C180.828 0 182.158 1.33 182.158 3.22C182.158 5.11 180.828 6.43 178.958 6.43H176.458V9.67H174.898Z" fill="black"/>
<path d="M187.012 8.41953C188.092 8.41953 188.792 7.55953 188.792 6.23953C188.792 4.91953 188.092 4.03953 187.012 4.03953C185.932 4.03953 185.232 4.91953 185.232 6.23953C185.232 7.55953 185.932 8.41953 187.012 8.41953ZM183.672 6.23953C183.672 4.19953 185.052 2.76953 187.012 2.76953C188.972 2.76953 190.352 4.19953 190.352 6.23953C190.352 8.27953 188.972 9.70953 187.012 9.70953C185.052 9.70953 183.672 8.27953 183.672 6.23953Z" fill="black"/>
<path d="M201.39 2.76953L199.35 9.66953H197.88L196.49 5.02953L195.12 9.66953H193.64L191.59 2.76953H193.21L194.41 7.39953L195.68 2.76953H197.28L198.58 7.39953L199.76 2.76953H201.38H201.39Z" fill="black"/>
<path d="M207.638 5.65953C207.518 4.88953 207.018 4.04953 205.908 4.04953C204.938 4.04953 204.188 4.77953 204.038 5.65953H207.638ZM202.578 6.23953C202.578 4.19953 203.948 2.76953 205.898 2.76953C208.058 2.76953 208.728 4.53953 208.768 4.62953C209.188 5.56953 209.058 6.62953 209.058 6.79953H204.038C204.198 7.75953 205.038 8.40953 205.908 8.40953C207.128 8.40953 207.508 7.68953 207.548 7.63953L208.808 8.16953C208.808 8.16953 208.168 9.68953 205.898 9.68953C203.948 9.68953 202.578 8.26953 202.578 6.22953V6.23953Z" fill="black"/>
<path d="M212.71 4.01977C213.09 3.27977 213.95 2.75977 214.79 2.75977V4.14977C213.53 4.14977 212.71 5.30977 212.71 6.28977V9.66977H211.16V2.76977H212.71V4.01977Z" fill="black"/>
<path d="M221.222 5.65953C221.102 4.88953 220.602 4.04953 219.492 4.04953C218.522 4.04953 217.772 4.77953 217.622 5.65953H221.222ZM216.172 6.23953C216.172 4.19953 217.532 2.76953 219.482 2.76953C221.642 2.76953 222.312 4.53953 222.352 4.62953C222.772 5.56953 222.642 6.62953 222.642 6.79953H217.622C217.782 7.75953 218.622 8.40953 219.492 8.40953C220.712 8.40953 221.092 7.68953 221.132 7.63953L222.392 8.16953C222.392 8.16953 221.752 9.68953 219.482 9.68953C217.532 9.68953 216.172 8.26953 216.172 6.22953V6.23953Z" fill="black"/>
<path d="M227.921 9.72C226.001 9.72 224.641 8.28 224.641 6.24C224.641 4.2 225.991 2.76 227.921 2.76C228.391 2.76 229.381 2.96 229.991 3.87V0H231.551V9.67H229.991V8.63C229.381 9.48 228.391 9.72 227.921 9.72ZM226.201 6.28C226.201 7.61 226.931 8.48 228.051 8.48C229.101 8.48 229.991 7.51 229.991 6.28C229.991 5.05 229.111 4.06 228.051 4.06C226.931 4.06 226.201 4.94 226.201 6.28Z" fill="black"/>
<path d="M241.661 9.72C241.231 9.72 240.241 9.53 239.611 8.64V9.67H238.051V0H239.611V3.85C240.251 2.91 241.231 2.77 241.661 2.77C243.581 2.77 244.951 4.2 244.951 6.24C244.951 8.28 243.581 9.72 241.661 9.72ZM239.611 6.28C239.611 7.5 240.481 8.48 241.551 8.48C242.621 8.48 243.401 7.61 243.401 6.28C243.401 4.95 242.661 4.07 241.551 4.07C240.441 4.07 239.611 5.06 239.611 6.28Z" fill="black"/>
<path d="M249.2 12.5295H247.5L248.97 9.06953L246.16 2.76953H247.88L249.78 7.36953L251.63 2.76953H253.33L249.21 12.5295H249.2Z" fill="black"/>
<defs>
<linearGradient id="paint0_linear_484_47" x1="51.6105" y1="-3.81759e-05" x2="51.6105" y2="61.53" gradientUnits="userSpaceOnUse">
<stop stop-color="#8020FA"/>
<stop offset="1" stop-color="#562CFA"/>
</linearGradient>
<linearGradient id="paint1_linear_484_47" x1="20.39" y1="63.0593" x2="20.39" y2="63.0593" gradientUnits="userSpaceOnUse">
<stop stop-color="#8020FA"/>
<stop offset="1" stop-color="#562CFA"/>
</linearGradient>
</defs>
</svg>
