<svg width="344" height="62" viewBox="0 0 344 62" fill="none" xmlns="http://www.w3.org/2000/svg">
<path d="M101.815 57.1055C91.4649 57.1055 84.2195 49.576 84.2195 38.8937C84.2195 28.1643 91.4649 20.6349 101.815 20.6819C106.708 20.6819 111.084 22.7525 114.236 25.9996L109.672 31.0349C108.026 28.5878 104.968 26.8937 101.768 26.8937C95.3698 26.8466 91.3708 31.4584 91.3708 38.8937C91.3708 46.2819 95.3698 50.8937 101.768 50.8937C105.532 50.8937 107.979 48.9172 109.343 47.0349L114.236 51.7878C111.084 55.0349 107.273 57.1996 101.815 57.1055Z" fill="white"/>
<path d="M117.988 21.0584H125.139V56.729H117.988V21.0584Z" fill="white"/>
<path d="M141.205 51.176C144.592 51.176 147.321 48.0231 147.368 43.976C147.321 39.929 144.592 36.776 141.205 36.776C137.723 36.776 135.512 39.5525 135.512 43.976C135.512 48.3996 137.723 51.176 141.205 51.176ZM128.361 43.976C128.361 36.4466 133.348 31.129 140.452 31.129C143.04 31.129 145.58 32.2584 147.368 34.329V31.0819H154.519V56.729L147.368 56.776V53.6702C145.58 55.6937 143.04 56.8231 140.452 56.8231C133.348 56.8231 128.361 51.5055 128.361 43.976Z" fill="white"/>
<path d="M163.578 48.5408C164.942 50.1408 167.106 51.3172 168.753 51.3643C170.776 51.4113 172.282 50.4702 172.329 49.0113C172.423 46.7055 159.39 46.6113 159.673 38.6113C159.814 33.9525 164.001 30.8466 169.835 31.0349C172.893 31.176 176.469 32.8702 178.445 35.2231L173.881 39.129C172.752 37.8113 171.011 36.8231 169.647 36.776C168 36.729 166.871 37.4819 166.824 38.6584C166.73 41.2937 179.762 41.0584 179.48 49.1055C179.292 54.0466 174.822 57.2937 168.565 57.1055C165.177 56.9643 161.178 55.0349 158.92 52.3996L163.578 48.5408Z" fill="white"/>
<path d="M200.281 55.3172C198.869 55.976 197.74 56.8231 194.117 56.8231C189.318 56.8231 185.978 53.1525 185.978 47.8819V37.6702H181.32V31.5525H185.978V24.0231H193.129V31.5525H199.575V37.6702H193.129V47.8819C193.129 49.3878 193.882 50.5643 194.964 50.7055C196.376 50.8466 197.787 49.8584 197.787 49.8584L200.281 55.3172Z" fill="white"/>
<path d="M232.714 57.1055C222.363 57.1055 215.118 49.576 215.118 38.8937C215.118 28.1643 222.363 20.6349 232.714 20.6819C237.606 20.6819 241.982 22.7525 245.134 25.9996L240.57 31.0349C238.924 28.5878 235.866 26.8937 232.666 26.8937C226.268 26.8466 222.269 31.4584 222.269 38.8937C222.269 46.2819 226.268 50.8937 232.666 50.8937C236.43 50.8937 238.877 48.9172 240.241 47.0349L245.134 51.7878C241.982 55.0349 238.171 57.1996 232.714 57.1055Z" fill="white"/>
<path d="M248.886 21.0584H256.038V56.729H248.886V21.0584Z" fill="white"/>
<path d="M271.821 51.129C275.161 51.129 277.231 48.3996 277.231 44.0231C277.231 39.6466 275.161 36.8702 271.821 36.8702C268.48 36.8702 266.41 39.6466 266.41 44.0231C266.41 48.3996 268.48 51.129 271.821 51.129ZM259.259 44.0231C259.259 36.4466 264.434 31.129 271.821 31.129C279.207 31.129 284.382 36.4466 284.382 44.0231C284.382 51.5525 279.207 56.8702 271.821 56.8702C264.434 56.8702 259.259 51.5525 259.259 44.0231Z" fill="white"/>
<path d="M295.699 44.6819C295.699 48.6819 298.005 50.9878 301.298 50.9878C304.497 50.9407 306.662 48.1172 306.52 44.2113V31.0819H313.672V56.729H306.52V52.6349C305.297 54.9878 302.615 56.6819 300.075 56.6819C293.3 56.6819 288.548 52.0231 288.548 44.6819V31.0819H295.699V44.6819Z" fill="white"/>
<path d="M329.886 56.776C322.781 56.776 317.747 51.4584 317.747 43.929C317.747 36.3525 322.781 31.0349 329.886 31.0349C330.685 31.0349 334.496 31.129 336.849 34.2349V21.0584H344V56.776H336.849V53.6702C334.496 56.3525 330.685 56.776 329.886 56.776ZM324.898 44.1172C324.898 48.5408 327.063 51.3172 330.544 51.3172C334.073 51.3172 336.849 48.1643 336.849 44.1172C336.849 40.0702 334.073 36.8702 330.544 36.8702C327.063 36.8702 324.898 39.6466 324.898 44.1172Z" fill="white"/>
<path d="M40.771 31.1411L31.2411 30.8157C32.4661 20.4215 40.6135 14.9693 51.1872 15.033C63.1794 14.9693 72 24.713 72 37.7692C72 52.4997 63.0508 61.529 50.9297 61.529C39.2599 61.529 32.2605 54.9378 31.2289 46.5842C35.9072 44.6664 37.4377 42.5938 40.2956 37.6173C40.011 41.0677 39.6817 42.0407 40.2956 45.5879C41.1982 50.3705 45.5139 53.1758 50.6718 53.2396C57.6995 53.1758 62.3934 47.5258 62.3289 37.7692C62.3934 29.942 58.0215 23.2587 50.9293 23.3224C45.6425 23.2587 41.4803 26.1034 40.771 31.1411Z" fill="url(#paint0_linear_2734_576)"/>
<path d="M31.2411 30.8157L40.771 31.1411C39.546 41.5354 31.3865 47.0887 20.8128 47.025C8.82063 47.0887 0 37.3451 0 24.2888C0 9.55827 8.94919 0.529001 21.0703 0.529001C32.7401 0.529001 39.7395 7.12019 40.7711 15.4738C36.0928 17.3916 34.5623 19.4642 31.7044 24.4407C31.9889 20.9903 32.3183 20.0173 31.7044 16.4701C30.8018 11.6875 26.4861 8.88219 21.3282 8.81842C14.3005 8.88219 9.60661 14.5322 9.67108 24.2888C9.60661 32.116 13.9907 38.6982 21.0828 38.6344C26.3697 38.6982 30.5319 35.8534 31.2411 30.8157Z" fill="url(#paint1_linear_2734_576)"/>
<path d="M178.901 5.083C179.928 5.083 180.591 4.342 180.591 3.224C180.591 2.093 179.915 1.352 178.888 1.352H176.457V5.083H178.901ZM174.897 9.672V0H178.953C180.825 0 182.151 1.326 182.151 3.224C182.151 5.109 180.825 6.435 178.953 6.435H176.457V9.672H174.897Z" fill="white"/>
<path d="M187.012 8.424C188.091 8.424 188.793 7.566 188.793 6.24C188.793 4.927 188.091 4.043 187.012 4.043C185.933 4.043 185.231 4.927 185.231 6.24C185.231 7.566 185.933 8.424 187.012 8.424ZM183.671 6.24C183.671 4.199 185.049 2.769 187.012 2.769C188.975 2.769 190.353 4.199 190.353 6.24C190.353 8.281 188.975 9.711 187.012 9.711C185.049 9.711 183.671 8.281 183.671 6.24Z" fill="white"/>
<path d="M201.389 2.769L199.348 9.672H197.879L196.488 5.031L195.123 9.672H193.641L191.587 2.769H193.212L194.408 7.397L195.682 2.769H197.281L198.581 7.397L199.764 2.769H201.389Z" fill="white"/>
<path d="M207.636 5.655C207.519 4.888 207.012 4.043 205.907 4.043C204.932 4.043 204.191 4.771 204.035 5.655H207.636ZM202.579 6.24C202.579 4.199 203.944 2.769 205.894 2.769C208.052 2.769 208.728 4.537 208.767 4.628C209.183 5.564 209.053 6.63 209.053 6.799H204.035C204.191 7.761 205.036 8.411 205.907 8.411C207.129 8.411 207.506 7.696 207.545 7.644L208.806 8.177C208.806 8.177 208.169 9.698 205.894 9.698C203.944 9.698 202.579 8.281 202.579 6.24Z" fill="white"/>
<path d="M212.708 4.017C213.085 3.276 213.943 2.756 214.788 2.756V4.147C213.527 4.147 212.708 5.304 212.708 6.292V9.672H211.161V2.769H212.708V4.017Z" fill="white"/>
<path d="M221.224 5.655C221.107 4.888 220.6 4.043 219.495 4.043C218.52 4.043 217.779 4.771 217.623 5.655H221.224ZM216.167 6.24C216.167 4.199 217.532 2.769 219.482 2.769C221.64 2.769 222.316 4.537 222.355 4.628C222.771 5.564 222.641 6.63 222.641 6.799H217.623C217.779 7.761 218.624 8.411 219.495 8.411C220.717 8.411 221.094 7.696 221.133 7.644L222.394 8.177C222.394 8.177 221.757 9.698 219.482 9.698C217.532 9.698 216.167 8.281 216.167 6.24Z" fill="white"/>
<path d="M227.92 9.724C225.996 9.724 224.644 8.281 224.644 6.24C224.644 4.199 225.996 2.756 227.92 2.756C228.388 2.756 229.376 2.951 229.987 3.861V0H231.547V9.672H229.987V8.632C229.376 9.477 228.388 9.724 227.92 9.724ZM226.204 6.279C226.204 7.605 226.932 8.476 228.05 8.476C229.103 8.476 229.987 7.501 229.987 6.279C229.987 5.057 229.103 4.056 228.05 4.056C226.932 4.056 226.204 4.94 226.204 6.279Z" fill="white"/>
<path d="M241.662 9.724C241.233 9.724 240.245 9.529 239.608 8.645V9.672H238.048V0H239.608V3.848C240.245 2.912 241.233 2.769 241.662 2.769C243.586 2.769 244.951 4.199 244.951 6.24C244.951 8.281 243.586 9.724 241.662 9.724ZM239.608 6.279C239.608 7.501 240.479 8.476 241.545 8.476C242.65 8.476 243.391 7.605 243.391 6.279C243.391 4.94 242.65 4.069 241.545 4.069C240.479 4.069 239.608 5.057 239.608 6.279Z" fill="white"/>
<path d="M249.203 12.532H247.5L248.969 9.074L246.161 2.769H247.877L249.775 7.371L251.621 2.769H253.324L249.203 12.532Z" fill="white"/>
<defs>
<linearGradient id="paint0_linear_2734_576" x1="172" y1="0" x2="172" y2="61.529" gradientUnits="userSpaceOnUse">
<stop stop-color="#8020FA"/>
<stop offset="1" stop-color="#562CFA"/>
</linearGradient>
<linearGradient id="paint1_linear_2734_576" x1="172" y1="0" x2="172" y2="61.529" gradientUnits="userSpaceOnUse">
<stop stop-color="#8020FA"/>
<stop offset="1" stop-color="#562CFA"/>
</linearGradient>
</defs>
</svg>
