<svg width="1494" height="1494" viewBox="0 0 1494 1494" fill="none" xmlns="http://www.w3.org/2000/svg">
<rect width="1494" height="1494" fill="#FFFDFE"/>
<path d="M701.685 288.256C693.375 292.192 637.388 338.107 622.297 353.631L610.488 365.438L593.866 358.223C569.372 347.728 545.097 343.355 518.197 344.885C490.64 346.197 475.332 350.351 450.181 362.596C409.941 382.492 380.854 415.508 365.107 459.456C358.546 478.041 358.328 480.009 358.328 513.68C358.546 546.04 358.984 549.975 364.67 566.811C367.95 576.869 370.356 585.396 369.919 585.615C369.481 586.052 362.483 589.987 353.954 594.579C345.643 599.171 324.648 611.633 307.808 622.347C280.252 639.401 276.315 642.681 273.254 650.334C268.88 661.485 268.88 664.327 273.472 673.729C278.065 683.568 288.125 689.69 299.498 689.69C306.715 689.69 313.057 686.848 333.396 674.166C347.174 665.639 368.606 652.739 381.072 645.961L403.817 633.279L416.502 643.774C423.719 649.678 433.779 657.112 439.246 660.391C444.714 663.453 449.088 666.951 449.088 667.825C449.088 670.231 417.814 692.532 395.506 706.089C385.884 711.992 375.386 719.207 371.887 722.268C352.86 739.76 364.232 770.589 389.82 770.589C399.006 770.589 403.598 768.621 423.937 756.377C451.056 739.76 454.118 737.792 481.455 717.458C492.609 709.15 502.888 702.809 504.637 703.465C508.136 704.777 551.439 737.355 552.97 739.76C554.063 741.728 536.786 753.316 481.236 788.299C467.021 797.264 453.462 807.103 451.056 810.383C437.278 829.405 450.619 855.861 474.019 855.861C482.767 855.861 504.419 843.18 569.591 799.888C584.9 789.83 598.24 781.521 599.334 781.521C601.084 781.521 635.857 816.286 641.324 823.501C643.73 826.781 642.636 828.312 631.264 835.527C624.266 840.119 599.99 853.237 577.245 864.607C551.876 877.288 534.38 887.565 531.756 891.063C526.07 898.716 526.07 915.77 531.537 923.423C537.879 931.95 550.564 937.416 559.531 935.886C569.81 933.918 630.608 903.526 659.476 885.816L683.096 871.385L699.498 890.844L716.119 910.523L690.531 926.921C656.414 949.223 619.454 976.772 611.362 985.737C602.177 996.232 600.865 1004.32 606.114 1016.35C611.144 1027.5 619.673 1032.96 632.139 1032.96C641.98 1032.75 643.949 1031.65 666.912 1014.16C683.752 1001.04 738.645 963.872 748.049 958.843C752.423 956.657 753.954 957.969 768.17 977.647L783.478 999.074L775.387 1005.63C756.797 1020.72 713.932 1059.64 702.56 1071.66C695.343 1079.1 689.657 1087.41 688.563 1091.56C684.189 1112.11 706.496 1132.23 725.523 1124.8C729.022 1123.48 743.238 1111.9 757.235 1099C796.382 1062.48 814.534 1047.61 816.939 1050.02C818.033 1051.11 825.25 1064.01 832.686 1078.44L846.245 1104.9L830.936 1117.8C822.407 1125.01 804.255 1141.63 790.477 1154.75C767.076 1177.05 765.764 1179.02 764.67 1188.42C762.702 1206.13 775.387 1221 792.445 1221C802.943 1220.78 806.661 1218.38 833.342 1193.67C846.464 1181.64 863.522 1166.12 871.395 1159.12L886.048 1146.66L901.576 1156.06C926.945 1171.8 947.94 1177.71 981.839 1179.02C1005.9 1179.89 1013.33 1179.24 1028.86 1175.3C1090.31 1160 1137.99 1112.77 1153.3 1051.77C1158.55 1030.78 1158.98 995.139 1154.39 972.837C1152.64 964.528 1151.11 957.313 1151.11 957.094C1151.11 957.094 1161.17 951.628 1173.64 945.506C1214.1 924.953 1247.34 904.182 1251.93 896.748C1260.02 883.41 1255.65 866.137 1242.31 858.048C1230.06 850.395 1222.41 852.144 1192.66 869.198C1159.2 888.221 1126.84 904.619 1125.52 903.307C1125.09 902.651 1119.4 893.468 1113.28 882.973C1106.93 872.26 1099.94 860.89 1097.97 857.829L1094.03 851.925L1123.12 832.466C1139.3 821.752 1161.61 808.196 1172.98 802.511C1197.69 789.83 1205.13 783.489 1208.19 772.338C1209.94 765.342 1209.5 762.281 1206.01 754.409C1200.54 741.946 1191.57 736.918 1177.57 738.229C1165.11 739.541 1132.96 756.814 1092.28 783.927C1076.32 794.64 1062.32 802.949 1061.44 802.293C1060.35 801.637 1054.88 794.422 1049.2 786.332C1043.51 778.242 1036.51 768.621 1033.67 764.686L1028.42 757.908L1053.13 741.509C1094.47 713.741 1127.93 687.941 1132.08 680.507C1142.14 661.703 1129.24 639.401 1108.03 639.401C1096.22 639.401 1094.03 640.495 1068.01 660.173C1037.39 683.349 993.211 711.992 991.243 710.024C980.964 699.31 943.566 651.646 944.441 650.334C946.847 646.398 986.213 621.254 1015.52 604.637C1033.01 594.798 1048.98 584.74 1050.95 582.335C1055.54 576.869 1057.95 564.843 1056.2 556.972C1055.32 553.911 1051.38 548.007 1047.23 543.853C1036.29 532.921 1024.92 533.577 1000.43 546.914C967.186 564.843 938.317 582.553 921.696 595.016L905.294 607.261L882.768 583.428C870.521 570.309 860.461 559.158 860.242 558.502C860.242 557.847 865.053 554.13 870.739 550.194C898.952 530.734 952.095 488.973 955.157 483.725C966.967 463.829 948.159 436.935 925.414 441.308C920.821 442.183 904.856 452.678 883.205 469.076C863.96 483.726 840.996 500.561 832.03 506.465L815.627 517.178L807.973 509.744C803.599 505.59 790.696 494.658 779.323 485.256C767.951 475.854 758.547 467.327 758.547 466.452C758.547 464.266 785.009 441.964 816.283 417.913C840.34 399.328 847.12 391.02 847.12 380.306C847.12 365.875 832.686 350.789 818.908 350.789C808.848 350.789 795.944 359.316 754.173 393.643C731.428 412.447 711.527 428.189 709.996 428.845C706.934 430.157 662.319 399.547 662.319 396.048C662.319 394.737 675.222 382.93 690.75 370.03C735.146 333.297 739.52 328.924 741.051 319.741C744.987 298.532 720.931 279.291 701.685 288.256Z" fill="#FAD9E9"/>
</svg>
