<svg width="3850" height="3651" viewBox="0 0 3850 3651" fill="none" xmlns="http://www.w3.org/2000/svg">
<path d="M1685.59 8.80889C1653.14 24.1768 1434.53 203.469 1375.6 264.087L1329.49 310.19L1264.59 282.016C1168.95 241.035 1074.16 223.959 969.125 229.936C861.527 235.058 801.751 251.28 703.547 299.091C546.421 376.784 432.846 505.704 371.362 677.312C345.744 749.883 344.89 757.567 344.89 889.048C345.744 1015.41 347.451 1030.77 369.654 1096.51C382.463 1135.79 391.857 1169.08 390.149 1169.94C388.441 1171.65 361.115 1187.01 327.811 1204.94C295.361 1222.87 213.382 1271.54 147.628 1313.37C40.0307 1379.97 24.6597 1392.77 12.7044 1422.66C-4.37452 1466.2 -4.37452 1477.3 13.5584 1514.01C31.4912 1552.43 70.7728 1576.33 115.178 1576.33C143.358 1576.33 168.123 1565.24 247.54 1515.72C301.338 1482.42 385.025 1432.05 433.7 1405.58L522.51 1356.06L572.039 1397.04C600.22 1420.09 639.501 1449.12 660.85 1461.93C682.198 1473.88 699.277 1487.54 699.277 1490.96C699.277 1500.35 577.163 1587.43 490.061 1640.37C452.487 1663.42 411.497 1691.59 397.834 1703.55C323.541 1771.85 367.946 1892.23 467.858 1892.23C503.724 1892.23 521.657 1884.55 601.074 1836.73C706.963 1771.85 718.918 1764.16 825.662 1684.76C869.213 1652.32 909.348 1627.56 916.18 1630.12C929.843 1635.24 1098.92 1762.46 1104.9 1771.85C1109.17 1779.53 1041.71 1824.78 824.808 1961.39C769.301 1996.39 716.356 2034.81 706.963 2047.62C653.164 2121.89 705.255 2225.2 796.627 2225.2C830.785 2225.2 915.326 2175.68 1169.8 2006.64C1229.58 1967.36 1281.67 1934.92 1285.94 1934.92C1292.77 1934.92 1428.55 2070.67 1449.9 2098.84C1459.29 2111.65 1455.02 2117.63 1410.62 2145.8C1383.29 2163.73 1288.5 2214.96 1199.69 2259.35C1100.63 2308.87 1032.32 2349 1022.07 2362.66C999.867 2392.54 999.867 2459.13 1021.22 2489.02C1045.98 2522.31 1095.51 2543.66 1130.52 2537.68C1170.66 2530 1408.05 2411.32 1520.77 2342.17L1613 2285.82L1677.05 2361.8L1741.95 2438.64L1642.03 2502.68C1508.82 2589.76 1364.5 2697.34 1332.91 2732.34C1297.04 2773.32 1291.92 2804.91 1312.41 2851.87C1332.05 2895.41 1365.36 2916.76 1414.03 2916.76C1452.46 2915.9 1460.14 2911.63 1549.81 2843.33C1615.56 2792.11 1829.9 2646.96 1866.62 2627.33C1883.7 2618.79 1889.68 2623.91 1945.19 2700.75L2004.96 2784.42L1973.37 2810.03C1900.78 2868.94 1733.41 3020.92 1689 3067.87C1660.82 3096.9 1638.62 3129.35 1634.35 3145.57C1617.27 3225.82 1704.37 3304.37 1778.67 3275.34C1792.33 3270.22 1847.84 3224.97 1902.49 3174.6C2055.34 3032.02 2126.22 2973.96 2135.62 2983.35C2139.89 2987.62 2168.07 3037.99 2197.1 3094.34L2250.04 3197.65L2190.27 3248.02C2156.96 3276.19 2086.09 3341.08 2032.29 3392.31C1940.92 3479.39 1935.79 3487.08 1931.52 3523.79C1923.84 3592.94 1973.37 3651 2039.97 3651C2080.96 3650.15 2095.48 3640.75 2199.66 3544.28C2250.9 3497.32 2317.51 3436.7 2348.25 3409.38L2405.46 3360.72L2466.09 3397.43C2565.15 3458.9 2647.13 3481.95 2779.49 3487.08C2873.43 3490.49 2902.46 3487.93 2963.09 3472.56C3203.05 3412.8 3389.21 3228.38 3448.99 2990.18C3469.48 2908.22 3471.19 2769.05 3453.26 2681.97C3446.42 2649.53 3440.45 2621.35 3440.45 2620.5C3440.45 2620.5 3479.73 2599.15 3528.4 2575.25C3686.38 2494.99 3816.18 2413.88 3834.12 2384.86C3865.71 2332.78 3848.63 2265.33 3796.54 2233.74C3748.72 2203.86 3718.83 2210.69 3602.7 2277.28C3472.04 2351.56 3345.66 2415.59 3340.53 2410.47C3338.83 2407.91 3316.62 2372.05 3292.71 2331.07C3267.95 2289.23 3240.62 2244.84 3232.94 2232.88L3217.57 2209.83L3331.14 2133.85C3394.33 2092.01 3481.44 2039.08 3525.84 2016.88C3622.34 1967.36 3651.37 1942.6 3663.33 1899.06C3670.16 1871.74 3668.45 1859.79 3654.79 1829.05C3633.44 1780.39 3598.43 1760.75 3543.77 1765.87C3495.1 1770.99 3369.57 1838.44 3210.73 1944.31C3148.4 1986.14 3093.74 2018.59 3090.33 2016.03C3086.06 2013.47 3064.71 1985.29 3042.51 1953.7C3020.3 1922.11 2992.98 1884.55 2981.88 1869.18L2961.38 1842.71L3057.88 1778.68C3219.27 1670.25 3349.93 1569.5 3366.15 1540.48C3405.43 1467.05 3355.05 1379.97 3272.22 1379.97C3226.11 1379.97 3217.57 1384.24 3115.95 1461.07C2996.39 1551.57 2823.9 1663.42 2816.21 1655.73C2776.08 1613.9 2630.05 1427.78 2633.47 1422.66C2642.86 1407.29 2796.57 1309.1 2911 1244.22C2979.31 1205.8 3041.65 1166.52 3049.34 1157.13C3067.27 1135.79 3076.66 1088.83 3069.83 1058.09C3066.42 1046.14 3051.05 1023.09 3034.82 1006.87C2992.12 964.18 2947.72 966.741 2852.08 1018.82C2722.28 1088.83 2609.56 1157.99 2544.66 1206.65L2480.61 1254.46L2392.65 1161.4C2344.83 1110.17 2305.55 1066.63 2304.7 1064.07C2304.7 1061.51 2323.48 1047 2345.69 1031.63C2455.85 955.642 2663.35 792.571 2675.31 772.081C2721.42 694.388 2647.98 589.374 2559.17 606.449C2541.24 609.864 2478.9 650.845 2394.36 714.878C2319.21 772.081 2229.55 837.821 2194.54 860.873L2130.49 902.708L2100.6 873.68C2083.52 857.458 2033.14 814.769 1988.74 778.057C1944.33 741.345 1907.61 708.048 1907.61 704.633C1907.61 696.095 2010.94 609.01 2133.05 515.096C2226.99 442.525 2253.46 410.082 2253.46 368.247C2253.46 311.898 2197.1 252.988 2143.3 252.988C2104.02 252.988 2053.64 286.285 1890.53 420.327C1801.72 493.751 1724.01 555.223 1718.04 557.784C1706.08 562.907 1531.88 443.379 1531.88 429.718C1531.88 424.596 1582.26 378.492 1642.89 328.119C1816.24 184.686 1833.32 167.61 1839.3 131.752C1854.67 48.9361 1760.73 -26.1958 1685.59 8.80889Z" fill="#DD0D75"/>
</svg>
