<svg width="330" height="103" viewBox="0 0 330 103" fill="none" xmlns="http://www.w3.org/2000/svg">
<path d="M68.5645 43.4492V65.5977H63.3555V56.7793H57.5313V52.5547H63.3555V43.4492H68.5645ZM55.8086 66.418C63.7657 66.459 68.6465 69.084 68.6876 73.6367C68.6465 78.1484 63.7657 80.8145 55.8086 80.8145C47.8516 80.8145 42.9708 78.1484 42.9708 73.6367C42.9708 69.084 47.8516 66.459 55.8086 66.418ZM55.8086 70.4375C50.8458 70.4375 48.1797 71.4629 48.1797 73.6367C48.1797 75.7695 50.8458 76.8359 55.8086 76.8359C60.7715 76.8359 63.4786 75.7695 63.4786 73.6367C63.4786 71.4629 60.7715 70.4375 55.8086 70.4375ZM58.6387 45.7051V49.8887H51.2149C51.3379 54.2363 53.9629 58.625 59.7872 60.5527L57.2032 64.6543C53.0811 63.3213 50.251 60.6143 48.6309 57.2305C46.9698 61.0449 43.9961 64.1211 39.5665 65.6387L36.8594 61.4961C42.9913 59.4453 45.7393 54.5645 45.8829 49.8887H38.377V45.7051H58.6387ZM105.89 72.1602V76.4258H71.7243V72.1602H86.1208V65.2695H75.3337V45.8281H80.5837V51.6113H96.8669V45.8281H102.076V65.2695H91.3298V72.1602H105.89ZM80.5837 61.0859H96.8669V55.7949H80.5837V61.0859ZM140.468 60.1836V64.0801H106.302V60.1836H140.468ZM136.367 65.9258V74.7441H115.449V76.877H137.474V80.4453H110.24V71.4219H131.199V69.5352H110.199V65.9258H136.367ZM136.325 44.1055V52.8828H115.777V54.8926H136.982V58.4199H110.568V49.5605H131.075V47.6738H110.486V44.1055H136.325Z" fill="#DD0D75"/>
<path d="M158.48 44.0234V46.6074H173.451V44.0234H178.66V56.5332H153.312V44.0234H158.48ZM158.48 52.6367H173.451V50.3809H158.48V52.6367ZM183.008 58.4609V62.6855H168.57V65.0234H178.865V74.457H158.07V76.5898H179.849V80.5273H152.943V70.8477H173.697V68.8379H152.902V65.0234H163.32V62.6855H148.965V58.4609H183.008ZM215.042 43.4492V80.8555H209.833V61.168H203.804V56.9023H209.833V43.4492H215.042ZM201.712 46.5664V60.5527H190.105V67.8535C195.252 67.8125 199.621 67.6279 204.419 66.7871L204.83 71.0527C199.292 71.9551 194.206 72.1602 187.972 72.1602H184.896V56.4102H196.626V50.791H184.814V46.5664H201.712ZM235.224 45.377C243.263 45.377 249.251 49.4375 249.292 55.5898C249.251 61.209 244.514 65.0029 237.808 65.7617V72.1191H252.368V76.4258H218.202V72.1191H232.599V65.7207C225.913 65.0029 221.196 61.1885 221.196 55.5898C221.196 49.4375 227.185 45.377 235.224 45.377ZM235.224 49.5605C230.015 49.5605 226.364 51.8574 226.364 55.5898C226.364 59.5273 230.015 61.7422 235.224 61.7422C240.474 61.7422 244.083 59.5273 244.124 55.5898C244.083 51.8574 240.474 49.5605 235.224 49.5605ZM283.132 53.6211V57.7227H257.046V44.7617H262.255V53.6211H283.132ZM286.946 61.7422V65.8438H252.78V61.7422H286.946ZM283.378 75.7695V79.9531H256.718V68.8789H261.968V75.7695H283.378ZM329.483 60.3887V64.6133H315.045V67.3613C321.546 67.8535 325.381 70.1914 325.422 74.0469C325.381 78.3535 320.5 80.7734 312.42 80.7734C304.217 80.7734 299.336 78.3535 299.336 74.0469C299.336 70.1709 303.212 67.833 309.836 67.3613V64.6133H295.44V60.3887H329.483ZM312.42 71.2168C307.252 71.2578 304.627 72.1602 304.668 74.0469C304.627 75.8516 307.252 76.8359 312.42 76.8359C317.465 76.8359 320.131 75.8516 320.172 74.0469C320.131 72.1602 317.465 71.2578 312.42 71.2168ZM326.406 45.0488V49.1504H316.276C317.157 51.7754 320.951 54.2979 328.047 54.8926L326.201 58.9941C319.167 58.3174 314.409 55.6514 312.42 52.0215C310.451 55.6514 305.776 58.3174 298.68 58.9941L296.957 54.8926C303.868 54.2979 307.683 51.7549 308.647 49.1504H298.557V45.0488H326.406Z" fill="#DDDDDD"/>
<path d="M48.0897 7.12005C47.243 7.42858 46.6961 8.18669 46.6961 9.05058C46.6961 9.37674 46.7843 9.77342 46.9695 10.2671C47.1195 10.6726 47.3929 11.4307 47.5781 11.9684C47.7634 12.4973 48.0368 13.2731 48.1868 13.6874C48.5131 14.5777 48.9894 16.2085 48.9894 16.4289C48.9894 16.5435 48.813 16.6405 48.2661 16.8168C47.8604 16.949 47.4194 17.1077 47.2694 17.1782C46.2639 17.6278 44.9408 18.1303 44.8967 18.0862C44.879 18.0686 44.6762 17.6366 44.4468 17.1254C44.2175 16.614 43.9176 15.9529 43.7765 15.6532C43.309 14.6482 42.5592 12.6207 42.0212 10.8665C41.7566 10.0291 41.686 9.89683 41.2803 9.50015C40.4599 8.69797 39.6573 8.63627 38.6958 9.29741C38.0078 9.76461 37.7079 10.5492 37.8843 11.4042C38.0607 12.2417 39.3221 15.8207 39.8425 16.949C40.998 19.4526 41.1391 19.8052 41.0333 19.8757C40.9715 19.911 40.8921 19.9462 40.8569 19.9462C40.8304 19.9462 40.0542 20.3076 39.1457 20.7396C38.2372 21.1803 37.4521 21.5241 37.3992 21.5065C37.3463 21.4801 37.0287 20.8189 36.6936 20.0256C36.182 18.7914 35.4851 17.3193 34.0827 14.4631C33.5093 13.2995 32.9625 12.894 31.9746 12.894C31.2513 12.894 30.6603 13.1937 30.2898 13.7579C29.69 14.657 29.7694 15.0097 31.1101 17.76C32.3715 20.3429 33.6769 23.3401 33.6152 23.5076C33.5887 23.5693 33.3153 23.7632 33.0066 23.9395C31.3306 24.8739 30.3427 25.4293 29.6459 25.8436C29.2137 26.0904 28.8256 26.2667 28.7815 26.2403C28.6668 26.1698 28.0494 24.9268 27.5731 23.8249C27.3526 23.3136 26.8233 21.8679 26.4 20.6162C25.9677 19.3556 25.5179 18.1744 25.3944 17.9981C25.1298 17.5926 24.5124 17.2135 23.9567 17.1077C23.1628 16.9666 22.2366 17.4868 21.8574 18.3066C21.7427 18.5534 21.6457 18.9237 21.6457 19.1176C21.6457 19.955 23.7979 25.7731 24.7682 27.5537C24.9887 27.9592 25.1739 28.3295 25.1739 28.3736C25.1651 28.4176 24.7858 28.6909 24.3271 28.9818C23.8685 29.2727 22.9864 29.8457 22.369 30.2512C21.7515 30.6567 21.2046 31.0005 21.1605 31.0269C21.1076 31.0446 20.9929 30.8506 20.9047 30.6038C20.8165 30.357 20.4373 29.5724 20.0756 28.8584C19.714 28.1532 18.9907 26.7339 18.4703 25.7114C17.9587 24.6888 17.4471 23.7279 17.3412 23.5781C16.8826 22.9434 15.6741 22.6613 14.8979 23.0227C14.4304 23.2343 13.9189 23.8161 13.7865 24.2833C13.5749 25.0855 13.6631 25.3323 15.3742 28.6821C16.9178 31.7233 17.6411 33.3365 17.5529 33.5657C17.5353 33.6274 17.1031 34.0065 16.6003 34.412C16.0975 34.8087 15.1714 35.5844 14.5275 36.1397C13.8924 36.6863 13.3455 37.1359 13.3279 37.1359C13.3014 37.1359 13.0721 36.7656 12.8339 36.3161C12.5869 35.8753 12.2782 35.3287 12.1547 35.1084C11.7578 34.4208 10.4877 32.1024 10.0643 31.2649C9.57031 30.3129 9.25277 29.9691 8.7059 29.784C7.64743 29.4226 6.61542 29.8281 6.14793 30.7625C5.95388 31.1768 5.92742 31.3178 5.9627 31.8379C6.00681 32.3933 6.06855 32.5608 6.87122 34.0594C7.34753 34.9497 7.96497 36.078 8.23841 36.5629C8.52067 37.0477 9.06754 38.035 9.46447 38.7491L10.1878 40.0536L9.45565 40.8205C9.0499 41.2348 8.38836 41.9313 7.98261 42.3633L7.23286 43.139L7.07409 42.9362C6.74773 42.5307 5.03654 39.6129 4.48967 38.5463C3.54587 36.6951 3.10484 36.2984 2.01991 36.2984C1.12021 36.2984 0.652722 36.5981 0.132308 37.4885C0.0529234 37.6207 0 37.9469 0 38.2818C0 38.8372 0.0176411 38.8901 0.864415 40.4416C2.49622 43.4211 3.22833 44.6464 3.96925 45.6161C4.35736 46.1097 4.36618 46.2717 4.26915 46.4358C4.22683 46.5074 3.96043 46.8325 3.687 47.2556C2.60207 48.9041 2.09929 50.2263 1.62298 52.6946C1.56124 53.0208 1.53478 53.6379 1.56124 54.2374C1.69355 56.9877 2.5315 59.4207 4.03982 61.36C4.64844 62.1534 6.27142 63.6873 7.03881 64.1897C7.95615 64.8068 9.32334 65.4414 10.3553 65.7323C10.814 65.8645 11.3344 66.0056 11.502 66.0585C12.287 66.2965 15.0743 66.2436 16.3533 65.9703C16.8385 65.8645 16.8826 65.9086 17.156 66.746C17.4912 67.7774 18.5761 70.6425 18.8672 71.2948C18.9378 71.4358 19.1142 71.8766 19.2553 72.2645C19.6875 73.3928 20.4108 73.9834 21.3722 73.9834C21.9632 73.9834 22.2366 73.8688 22.6865 73.4281C23.1981 72.9344 23.3216 72.67 23.348 72.0617C23.3657 71.6121 23.2775 71.3565 22.6336 69.708C22.2278 68.6855 21.8221 67.6982 21.7339 67.5042C21.531 67.0459 20.6754 64.4189 20.6754 64.2514C20.6754 64.1809 20.9047 63.9429 21.187 63.7225C21.4604 63.511 22.122 62.8939 22.66 62.3562C23.1893 61.8184 23.6744 61.3777 23.7273 61.3777C23.9126 61.3777 25.3062 64.4276 26.1442 66.6667C26.6293 67.9625 27.2555 68.5179 28.2435 68.5179C28.905 68.5179 29.2931 68.3592 29.6988 67.9096C30.1134 67.4424 30.184 67.3014 30.2545 66.746C30.3075 66.2524 30.3163 66.2876 29.6724 64.507C29.1873 63.1583 27.432 59.3765 26.8851 58.495C26.8145 58.3892 26.7616 58.2394 26.7616 58.1688C26.7616 58.0542 29.2843 55.5773 29.8753 55.1101C30.087 54.9514 30.1487 54.9338 30.2457 55.0395C30.3868 55.1806 31.1631 56.9877 32.0628 59.262C32.936 61.457 33.3947 62.4884 33.6152 62.7617L33.8092 63.0084L33.8181 58.0631L33.9063 47.4585C33.9063 43.5181 33.9239 42.9363 34.0562 42.5484C34.3473 41.6933 34.8942 41.0585 35.6439 40.7412C36.0232 40.5825 36.4025 40.5737 45.6464 40.5737C54.6765 40.5859 54.908 40.5397 55.252 40.4062C55.4703 40.3215 55.4637 40.1683 56.2929 39.8862C56.2929 39.8862 57.563 39.4631 57.8629 39.3837C58.1628 39.3132 58.6656 39.1545 58.9919 39.0311C59.3183 38.9077 59.6182 38.8284 59.6623 38.8548C59.7064 38.8813 59.8828 39.1721 60.0681 39.4982C60.659 40.5737 60.4032 40.4855 63.0318 40.4855C64.6195 40.4855 65.3075 40.4591 65.3075 40.3886C65.3075 40.3357 65.2369 40.1859 65.1399 40.0625C64.8488 39.6394 63.3493 37.1094 63.2258 36.8273C63.12 36.5629 63.1288 36.5452 63.6404 35.9811C64.3196 35.2494 65.2457 33.9183 65.6691 33.0809C66.3924 31.6175 66.9834 29.308 66.9834 27.9063C66.9834 25.6408 66.4189 23.4459 65.3869 21.6564C64.6636 20.4046 64.3019 19.9286 63.2699 18.9325C61.3823 17.0989 59.6623 16.2085 56.7956 15.5562C56.3546 15.4592 55.7195 15.424 54.5905 15.424H52.994L52.747 14.5336C52.4471 13.4934 52.0325 12.2329 51.5915 10.9987C51.4151 10.5139 51.1505 9.78224 51.0093 9.36792C50.5242 7.96631 50.2508 7.58725 49.4746 7.21702C48.9365 6.96137 48.5837 6.93493 48.0897 7.12005Z" fill="#DD0D75"/>
<rect x="129" y="99" width="99" height="4" fill="" fill-opacity="0.01"/>
<rect x="129" width="99" height="4" fill="" fill-opacity="0.01"/>
</svg>
