<svg width="4604" height="1409" viewBox="0 0 4604 1409" fill="none" xmlns="http://www.w3.org/2000/svg">
<path d="M583.681 1.45709C573.404 5.20184 566.766 14.4033 566.766 24.8886C566.766 28.8474 567.837 33.662 570.085 39.6536C571.905 44.5753 575.224 53.7767 577.472 60.3033C579.72 66.7229 583.039 76.1383 584.859 81.167C588.82 91.9733 594.601 111.767 594.601 114.442C594.601 115.833 592.46 117.01 585.823 119.15C580.898 120.754 575.545 122.68 573.725 123.536C561.52 128.993 545.462 135.091 544.926 134.557C544.712 134.343 542.25 129.1 539.466 122.894C536.683 116.689 533.043 108.664 531.33 105.026C525.656 92.8292 516.556 68.2208 510.025 46.9292C506.814 36.7648 505.957 35.1599 501.032 30.3452C491.076 20.6089 481.334 19.8599 469.664 27.8844C461.314 33.5551 457.674 43.0774 459.815 53.4557C461.956 63.6201 477.266 107.059 483.582 120.754C497.607 151.141 499.319 155.42 498.035 156.276C497.285 156.704 496.322 157.132 495.894 157.132C495.572 157.132 486.151 161.519 475.124 166.761C464.097 172.111 454.569 176.284 453.927 176.07C453.284 175.749 449.43 167.724 445.362 158.095C439.153 143.116 430.695 125.248 413.673 90.5823C406.714 76.4593 400.077 71.5376 388.086 71.5376C379.307 71.5376 372.134 75.1754 367.638 82.0229C360.358 92.9362 361.321 97.2159 377.594 130.598C392.904 161.947 408.748 198.324 407.999 200.357C407.678 201.106 404.359 203.46 400.612 205.6C380.271 216.941 368.28 223.682 359.823 228.711C354.577 231.706 349.866 233.846 349.331 233.525C347.939 232.669 340.445 217.583 334.664 204.209C331.987 198.003 325.564 180.457 320.425 165.264C315.179 149.964 309.719 135.626 308.221 133.487C305.009 128.565 297.515 123.964 290.77 122.68C281.135 120.968 269.894 127.281 265.29 137.231C263.898 140.227 262.721 144.721 262.721 147.075C262.721 157.239 288.843 227.855 300.619 249.467C303.296 254.389 305.544 258.883 305.544 259.418C305.437 259.953 300.834 263.269 295.267 266.8C289.699 270.331 278.994 277.285 271.5 282.207C264.006 287.129 257.368 291.302 256.833 291.622C256.19 291.836 254.799 289.483 253.728 286.487C252.657 283.491 248.054 273.969 243.664 265.302C239.275 256.743 230.496 239.517 224.18 227.106C217.971 214.694 211.761 203.032 210.476 201.213C204.909 193.51 190.242 190.086 180.821 194.473C175.147 197.041 168.938 204.102 167.332 209.773C164.763 219.509 165.833 222.505 186.602 263.162C205.338 300.075 214.116 319.655 213.046 322.436C212.832 323.185 207.586 327.786 201.484 332.708C195.381 337.522 184.14 346.938 176.325 353.678C168.617 360.312 161.979 365.769 161.765 365.769C161.444 365.769 158.66 361.275 155.77 355.818C152.772 350.469 149.025 343.835 147.526 341.16C142.709 332.815 127.292 304.676 122.153 294.511C116.158 282.956 112.304 278.783 105.666 276.536C92.8195 272.15 80.2937 277.071 74.6196 288.413C72.2643 293.441 71.9431 295.153 72.3713 301.466C72.9066 308.206 73.656 310.239 83.3983 328.428C89.1795 339.234 96.6736 352.93 99.9924 358.814C103.418 364.699 110.056 376.682 114.873 385.348L123.652 401.183L114.766 410.492C109.842 415.521 101.812 423.973 96.8877 429.216L87.7877 438.631L85.8607 436.17C81.8995 431.249 61.1302 395.834 54.4926 382.888C43.0374 360.419 37.6845 355.604 24.5163 355.604C13.5964 355.604 7.92231 359.242 1.60587 370.048C0.642349 371.653 0 375.612 0 379.678C0 386.418 0.214116 387.06 10.4917 405.891C30.2975 442.055 39.1833 456.927 48.1762 468.696C52.8868 474.688 52.9938 476.655 51.8162 478.646C51.3025 479.515 48.0691 483.461 44.7503 488.597C31.5822 508.605 25.4799 524.654 19.6987 554.612C18.9493 558.57 18.6281 566.06 18.9493 573.335C20.5552 606.717 30.7257 636.247 49.0327 659.786C56.4197 669.415 76.1184 688.032 85.4324 694.131C96.5665 701.62 113.161 709.324 125.686 712.854C131.253 714.459 137.57 716.171 139.604 716.813C149.132 719.702 182.962 719.06 198.486 715.743C204.374 714.459 204.909 714.994 208.228 725.159C212.296 737.677 225.465 772.45 228.997 780.367C229.854 782.079 231.995 787.429 233.708 792.136C238.954 805.831 247.733 813 259.402 813C266.575 813 269.894 811.609 275.354 806.259C281.563 800.268 283.062 797.058 283.383 789.675C283.597 784.219 282.527 781.116 274.711 761.108C269.787 748.697 264.862 736.714 263.791 734.36C261.329 728.796 250.944 696.912 250.944 694.88C250.944 694.024 253.728 691.135 257.154 688.46C260.473 685.892 268.502 678.403 275.033 671.876C281.456 665.349 287.344 660 287.987 660C290.235 660 307.15 697.019 317.321 724.196C323.209 739.924 330.81 746.664 342.8 746.664C350.83 746.664 355.54 744.738 360.465 739.282C365.497 733.611 366.353 731.899 367.21 725.159C367.852 719.167 367.959 719.595 360.144 697.982C354.256 681.612 332.951 635.712 326.313 625.013C325.457 623.729 324.815 621.91 324.815 621.054C324.815 619.663 355.433 589.598 362.606 583.928C365.176 582.002 365.925 581.788 367.103 583.072C368.816 584.784 378.237 606.717 389.157 634.321C399.755 660.963 405.322 673.481 407.999 676.798L410.354 679.794L410.461 619.77L411.532 491.058C411.532 443.232 411.746 436.17 413.352 431.462C416.885 421.084 423.522 413.381 432.622 409.529C437.226 407.603 441.829 407.496 554.026 407.496C663.627 407.644 666.437 407.084 670.613 405.463C673.262 404.435 673.182 402.574 683.245 399.151C683.245 399.151 698.662 394.015 702.302 393.052C705.942 392.196 712.044 390.27 716.005 388.772C719.966 387.274 723.606 386.311 724.142 386.632C724.677 386.953 726.818 390.484 729.066 394.443C736.239 407.496 733.135 406.426 765.038 406.426C784.308 406.426 792.659 406.105 792.659 405.249C792.659 404.607 791.802 402.788 790.625 401.29C787.092 396.155 768.892 365.448 767.393 362.024C766.109 358.814 766.216 358.6 772.425 351.753C780.668 342.872 791.91 326.716 797.048 316.552C805.827 298.791 813 270.759 813 253.747C813 226.25 806.148 199.608 793.622 177.889C784.844 162.696 780.454 156.918 767.928 144.828C745.018 122.573 724.142 111.767 689.348 103.849C683.995 102.673 676.287 102.245 662.583 102.245H643.206L640.208 91.4383C636.568 78.8131 631.536 63.5131 626.183 48.5341C624.042 42.6495 620.831 33.769 619.118 28.7404C613.229 11.7285 609.911 7.12775 600.489 2.63403C593.959 -0.46875 589.677 -0.789734 583.681 1.45709Z" fill="#DD0D75"/>
<path d="M456.823 449.766C455.107 451.587 455 467.01 455 668.9V886L552.351 885.572C635.442 885.25 650.773 884.929 657.742 883.43C680.579 878.717 700.95 872.291 716.603 864.793C724.537 860.938 729.576 857.939 743.835 848.514C747.909 845.836 752.198 843.051 753.377 842.302C758.524 839.303 780.074 817.775 788.329 807.386C793.368 801.174 800.766 789.928 805.055 782.323C812.131 769.471 822.852 745.266 824.031 739.161C824.353 737.661 825.64 732.841 826.819 728.45C834.539 699.961 836.254 657.547 830.893 626.487C826.283 599.604 818.885 577.327 808.164 557.298C786.828 517.67 757.237 489.501 716.174 469.58C701.914 462.618 692.158 459.084 674.789 454.907C649.594 448.802 646.27 448.588 548.169 448.159C461.969 447.838 458.538 447.838 456.823 449.766ZM635.334 532.45C647.664 535.235 663.746 539.305 665.14 540.054C665.998 540.483 670.822 542.839 675.754 545.303C688.298 551.515 692.158 554.299 702.665 565.224C721.856 585.145 731.934 606.03 737.081 636.448C739.011 647.908 739.225 652.728 738.796 671.685C738.153 700.817 734.508 718.061 724.858 738.197C712.529 763.794 692.265 782.859 665.998 793.784C648.736 800.852 642.625 801.602 594.164 802.031L550.421 802.459V667.615C550.421 593.499 550.742 532.45 551.171 532.129C552.243 530.951 630.295 531.272 635.334 532.45Z" fill="#DD0D75"/>
<path d="M872 667V886H919H966V667V448H919H872V667Z" fill="#DD0D75"/>
<path d="M1019.75 448.75C1019.32 449.071 1019 547.701 1019 667.75V886H1066.71H1114.43L1114.64 745.926L1114.96 605.958L1117.75 608.85C1119.36 610.563 1127.4 621.487 1135.87 633.267C1144.23 645.154 1151.74 655.327 1152.38 656.077C1153.13 656.826 1156.78 661.967 1160.53 667.535C1164.28 673.104 1169.22 679.851 1171.36 682.528C1173.51 685.205 1177.58 690.667 1180.37 694.844C1183.26 698.913 1185.84 702.554 1186.26 702.875C1186.59 703.197 1191.41 709.943 1196.99 717.868C1202.56 725.793 1209.32 735.217 1212.11 738.751C1214.79 742.285 1219.07 748.282 1221.65 752.137C1224.22 755.992 1229.69 763.596 1233.87 769.164C1242.02 779.766 1243.2 781.373 1250.49 791.975C1259.82 805.361 1263.57 809.966 1264.54 809.43C1264.96 809.109 1268.93 803.969 1273.22 797.865C1277.51 791.867 1281.37 786.727 1281.69 786.406C1282.12 786.085 1283.84 783.729 1285.55 781.158C1290.59 773.555 1291.66 772.056 1295.74 767.022C1297.88 764.452 1303.14 757.277 1307.32 751.066C1311.61 744.855 1319.65 733.503 1325.22 725.9C1330.91 718.189 1337.98 708.444 1340.98 704.053C1344.09 699.663 1350.96 690.346 1356.21 683.171C1361.57 675.996 1370.9 663.038 1377.12 654.363C1383.34 645.689 1391.7 634.123 1395.67 628.662C1399.74 623.307 1404.67 616.239 1406.71 613.134C1408.75 610.135 1411.11 607.565 1411.86 607.565C1414.32 607.565 1416.15 613.562 1414.75 616.882C1413.89 619.131 1413.57 655.755 1413.79 752.672L1414.11 885.465L1461.61 885.786L1509 886V667V448H1457.86C1429.66 448 1406.07 448.428 1405.32 448.857C1404.57 449.285 1401.24 453.783 1397.92 458.709C1394.6 463.742 1387.41 474.237 1381.94 482.269C1371.01 498.333 1333.8 553.377 1327.9 562.587C1325.76 565.8 1321.68 571.797 1318.9 575.973C1311.5 586.896 1295.52 610.456 1279.87 633.802C1269.9 648.473 1265.61 654.149 1264.11 654.149C1262.5 654.149 1256.49 646.01 1241.48 623.628C1230.23 606.815 1215.96 585.611 1209.75 576.509C1159.57 502.188 1147.77 484.732 1136.3 467.812L1123.33 448.535L1071.86 448.214C1043.55 448.107 1020.07 448.321 1019.75 448.75Z" fill="#DD0D75"/>
<path d="M1564.75 448.75C1564.32 449.071 1564 547.701 1564 667.75V886H1611H1658V667V448H1611.75C1586.22 448 1565.07 448.321 1564.75 448.75Z" fill="#DD0D75"/>
<path d="M2440.35 450.285C2412.68 453.279 2386.84 460.123 2367.22 469.855C2340.62 482.902 2328.19 491.885 2307.81 512.524C2289.58 531.025 2280.9 543.109 2269.85 565.781C2252.91 600.43 2246.8 632.405 2248.19 679.138C2249.37 717.851 2257.74 748.222 2276.93 783.406C2283.36 795.17 2294.94 810.141 2307.92 823.402C2339.77 855.912 2375.37 874.306 2423.08 882.861C2432.84 884.679 2439.6 885 2463.62 885C2479.49 885 2496 884.465 2500.18 883.824C2512.41 882.113 2531.71 877.621 2537.71 875.161C2540.82 873.985 2545.75 872.274 2548.65 871.418C2557.55 868.852 2581.68 855.698 2595.08 846.287C2613.42 833.347 2631.86 814.526 2643.66 796.774C2657.38 776.134 2664.03 762.339 2672.39 736.78C2680.54 712.076 2684.19 669.407 2680.65 641.174C2677.43 615.295 2677.22 614.011 2671.54 594.976C2667.57 581.501 2657.27 559.365 2649.02 546.532C2647.52 544.179 2645.8 541.398 2645.16 540.543C2639.37 531.346 2634.65 525.357 2625.86 516.16C2605.59 495.093 2589.61 483.543 2562.59 470.39C2547.68 463.118 2538.36 459.802 2520.34 455.632C2493.21 449.215 2466.3 447.504 2440.35 450.285ZM2495.03 525.25C2521.95 530.277 2542.32 541.612 2561.95 562.466C2577.07 578.4 2588.75 603.103 2594.22 630.801C2596.37 641.388 2596.47 644.917 2596.05 671.439C2595.62 698.602 2595.4 701.275 2592.72 712.183C2588 731.112 2580.39 748.757 2570.74 762.873C2565.7 770.252 2548.65 786.721 2540.29 792.282C2533.42 796.881 2517.45 804.366 2511.76 805.757C2509.62 806.291 2504.04 807.789 2499.32 809.072C2492.25 810.997 2486.89 811.532 2468.98 811.959C2446.14 812.601 2443.46 812.28 2424.26 807.468C2401.85 801.8 2385.02 791.854 2368.4 774.744C2359.17 765.012 2355.85 760.2 2348.99 746.511C2337.62 723.947 2333.65 705.767 2332.9 672.722C2331.94 632.405 2338.26 605.456 2355.64 577.01C2361.1 567.92 2367.43 560.862 2379.01 550.595C2390.49 540.329 2411.29 530.277 2430.16 525.999C2445.17 522.577 2478.41 522.149 2495.03 525.25Z" fill="#DCDCDC"/>
<path d="M1717.21 667.679L1717.54 881.465H1759.86H1802.18L1802.5 736.694C1802.61 647.456 1803.14 592.03 1803.68 592.244C1804.86 592.672 1814.93 605.512 1825.75 620.492C1829.93 626.163 1836.68 635.472 1840.75 641.143C1844.93 646.814 1849.54 653.341 1851.14 655.695C1852.75 658.049 1856.18 662.864 1858.86 666.395C1861.43 669.926 1866.25 676.667 1869.57 681.375C1878.68 694.322 1882.11 698.923 1888.43 707.376C1891.64 711.549 1897.21 719.146 1900.75 724.175C1904.29 729.204 1910.82 738.299 1915.21 744.291C1919.61 750.283 1925.71 758.629 1928.61 762.802C1944.89 785.914 1948.96 791.371 1953.04 795.972L1957.64 801.001L1963.54 793.618C1966.75 789.552 1970.82 784.202 1972.54 781.634C1974.36 779.173 1977.46 774.786 1979.5 771.897C1981.54 769.115 1987 761.518 1991.61 755.098C1996.21 748.678 2004.89 736.587 2010.89 728.348C2016.89 720.002 2029.75 702.133 2039.39 688.758C2049.14 675.276 2059.21 661.259 2061.89 657.621C2064.57 653.983 2070.46 645.851 2074.86 639.645C2079.25 633.332 2085.04 625.307 2087.71 621.99C2090.39 618.566 2094.46 613.002 2096.82 609.578C2103.04 600.697 2110.21 592.03 2111.39 592.03C2111.93 592.03 2112.36 646.707 2112.36 737.015V882H2154.68H2197V668V454H2148.89H2100.68L2093.71 464.379C2089.86 470.157 2081.82 482.034 2075.82 490.915C2053.32 524.085 2019.89 573.626 1968.79 649.596C1963.96 656.872 1959.36 663.078 1958.5 663.399C1956.25 664.255 1954.43 662.329 1946.82 650.987C1914.46 602.73 1878.14 549.123 1853.93 513.385C1838.18 490.166 1825.21 470.906 1825.21 470.478C1825.21 470.264 1822.54 466.412 1819.32 462.025L1813.32 454H1765.21H1717L1717.21 667.679Z" fill="#DCDCDC"/>
<path d="M2729 668V882H2771.24H2813.47V736.159C2813.47 656.016 2813.9 589.783 2814.43 589.034C2815.29 587.536 2823.09 597.808 2839.56 621.99C2844.16 628.731 2849.61 636.649 2851.75 639.645C2853.89 642.534 2859.45 650.773 2864.26 657.835C2873.56 671.745 2908.74 722.463 2912.06 726.85C2914.52 730.06 2951.73 784.309 2959.64 796.079C2962.63 800.68 2966.05 805.602 2967.12 807.1C2969.47 810.31 2994.5 846.369 3004.97 861.67C3009.25 867.876 3014.38 874.938 3016.31 877.399L3019.94 882H3067.53H3115V668V454H3072.76H3030.53V600.911C3030.53 681.803 3030.21 748.25 3029.78 748.571C3028.71 749.641 3024.43 744.291 3010.21 723.64C3003.16 713.368 2990.54 695.071 2982.2 682.98C2973.86 670.889 2965.41 658.584 2963.59 655.695C2961.67 652.699 2956.54 645.423 2952.26 639.324C2947.98 633.225 2942.74 625.628 2940.71 622.525C2938.68 619.422 2934.72 613.537 2931.94 609.471C2920.82 593.528 2918.36 589.997 2910.77 578.655C2906.5 572.128 2900.4 563.461 2897.41 559.395C2894.41 555.222 2887.14 544.95 2881.37 536.39C2875.59 527.83 2868.43 517.344 2865.44 512.957C2862.44 508.57 2859.56 504.29 2858.91 503.434C2858.38 502.471 2855.49 498.298 2852.5 494.232C2849.61 490.059 2843.62 481.285 2839.35 474.865C2834.96 468.338 2829.94 461.062 2828.12 458.494L2824.91 454H2776.9H2729V668Z" fill="#DCDCDC"/>
<path d="M3294.76 456.464C3274.64 460.211 3257.84 466.742 3238.57 478.304C3224.12 486.976 3207.75 503.355 3200.15 516.63C3188.37 537.614 3185.05 550.568 3185.05 575.726C3185.16 609.984 3191.69 626.471 3214.38 649.595C3225.41 660.836 3229.15 663.941 3239.64 670.15C3246.38 674.111 3256.77 679.25 3262.65 681.391C3268.54 683.533 3274.1 685.781 3275.07 686.316C3278.06 687.922 3320.02 701.197 3328.48 703.231C3343.25 706.871 3373.86 717.577 3381.67 721.859C3392.05 727.64 3399.65 734.492 3403.18 741.236C3405.75 746.054 3406.07 747.874 3406.07 756.331C3406.07 771.426 3400.51 782.989 3388.52 792.838C3372.47 806.113 3355.66 811.466 3330.3 811.466C3314.99 811.466 3309.42 810.502 3294.44 805.471C3280.74 800.867 3259.01 786.414 3243.17 771.426L3231.29 760.078L3220.27 768.964C3214.17 773.782 3208.07 778.492 3206.78 779.349C3205.6 780.205 3198.86 785.558 3191.8 791.125C3184.84 796.799 3176.92 803.008 3174.14 805.042C3171.25 806.969 3169 808.896 3169 809.325C3169 810.288 3183.88 824.527 3192.55 831.914C3211.92 848.4 3236.64 862.211 3264.79 872.381C3280.85 878.055 3289.41 880.196 3307.07 882.873C3320.34 884.8 3353.2 884.158 3365.4 881.695C3369.58 880.839 3375.78 879.661 3379.32 878.912C3388.63 877.092 3411.1 868.848 3421.06 863.496C3448.67 848.829 3468.26 829.558 3480.35 804.935C3494.05 777.1 3494.59 735.348 3481.64 709.976C3477.25 701.411 3469.76 691.883 3459.91 682.462C3449.1 671.97 3441.71 666.725 3428.55 659.98C3409.82 650.452 3398.69 646.17 3355.23 631.61C3305.89 615.23 3290.59 608.485 3279.99 598.529C3271.96 591.035 3269.61 585.468 3269.61 573.799C3269.61 560.738 3272.93 552.173 3281.38 543.716C3292.09 532.903 3305.04 527.443 3324.09 525.516C3342.18 523.803 3353.09 526.051 3370.75 534.937C3384.67 542.003 3391.94 547.249 3403.4 558.383L3413.57 568.232L3416.88 565.448C3418.7 563.843 3423.73 559.882 3428.01 556.67C3432.3 553.458 3437.97 549.069 3440.43 547.035C3443 545.001 3447.6 541.254 3450.7 538.791C3461.94 529.691 3473.5 519.949 3473.82 519.307C3474.04 518.557 3453.7 498.324 3447.92 493.613C3442.04 488.796 3426.52 479.482 3414.42 473.593C3382.53 458.07 3364.55 453.895 3329.55 454.002C3311.67 454.109 3305.25 454.537 3294.76 456.464Z" fill="#DCDCDC"/>
<path d="M3510 489.845V525.69H3569.89H3629.79L3630 703.524L3630.32 881.465L3672.36 881.786L3714.28 882V703.845V525.69H3773.64H3833V489.845V454H3671.5H3510V489.845Z" fill="#DCDCDC"/>
<path d="M3873 668V882H4030.5H4188V845.62V809.24H4072.82H3957.64V753.6V697.96H4055.46C4149 697.96 4153.5 697.853 4155.11 696.034C4156.71 694.322 4156.93 690.149 4156.93 660.296C4156.93 630.443 4156.71 626.377 4155.21 625.842C4154.25 625.521 4109.46 625.2 4055.57 625.2H3957.64V575.445V525.69H4072.82H4188V489.845V454H4030.5H3873V668Z" fill="#DCDCDC"/>
<path d="M4244 668V882L4286.11 881.786L4328.11 881.465L4328.43 816.944L4328.64 752.53H4366.68H4404.61L4420.68 774.144C4429.57 786.128 4441.79 802.606 4448 810.845C4454.11 819.084 4462.14 830.105 4465.89 835.455C4469.64 840.698 4476.61 850.114 4481.32 856.32C4486.04 862.526 4492.25 870.765 4495.14 874.724L4500.29 882H4552.14C4580.64 882 4604 881.679 4604 881.358C4604 880.93 4602.29 878.576 4600.25 876.008C4598.21 873.547 4596.5 871.193 4596.5 870.765C4596.5 870.444 4593.29 865.95 4589.32 860.921C4585.25 855.892 4581.18 850.542 4580.21 848.83C4578.61 846.048 4567.57 831.175 4550.96 809.24C4544.86 801.215 4534.68 786.877 4531.68 782.276C4531.14 781.313 4527.39 776.391 4523.43 771.362C4519.36 766.226 4516.14 761.732 4516.14 761.304C4516.14 760.769 4515.29 759.485 4514.21 758.308C4510.25 754.028 4500.07 739.69 4500.07 738.406C4500.07 737.657 4504.57 734.233 4510.04 730.809C4524.39 721.714 4526.32 720.323 4538.11 709.409C4557.29 691.968 4567.36 677.416 4575.5 655.802C4583.75 633.867 4586.75 604.656 4583.64 575.445C4581.93 559.288 4572.29 529.542 4565.32 519.27C4564.36 517.772 4561.14 512.957 4558.14 508.463C4541.64 483.639 4511.21 462.774 4483.46 457.21C4479.93 456.568 4475 455.498 4472.54 454.963C4469.96 454.428 4420.04 454 4356.07 454H4244V668ZM4448.86 527.295C4461.71 529.97 4469.32 534.25 4478.86 543.987C4494.07 559.288 4500.07 576.515 4500.07 604.335C4500.07 630.443 4493.64 647.884 4478.64 662.971C4469.11 672.387 4461.82 676.346 4448.21 679.128C4441.14 680.519 4431.29 680.84 4384.25 680.84H4328.64V603.265V525.69H4384.79C4431.18 525.69 4442.43 526.011 4448.86 527.295Z" fill="#DCDCDC"/>
<path d="M1883.6 1372.08V1387.7H1723.45V1372.08H1793.96V1341.41H1742.98V1285.75H1845.71V1261.14H1742.59V1245.91H1864.07V1300.59H1761.34V1326.18H1868.18V1341.41H1812.32V1372.08H1883.6ZM2034.97 1251.38V1270.12C2034.97 1292.78 2034.97 1317.39 2028.53 1354.69L2009.58 1352.94C2016.61 1317.98 2016.61 1292.2 2016.61 1270.12V1266.61H1913.49V1251.38H2034.97ZM2055.87 1368.37V1383.8H1896.3V1368.37H2055.87ZM2214.27 1233.8V1360.94H2195.71V1233.8H2214.27ZM2219.54 1389.85V1404.89H2099.82V1348.06H2118.57V1389.85H2219.54ZM2119.35 1245.52C2145.71 1245.52 2165.83 1263.48 2165.83 1288.88C2165.83 1314.66 2145.71 1332.43 2119.35 1332.43C2092.98 1332.43 2072.67 1314.66 2072.67 1288.88C2072.67 1263.48 2092.98 1245.52 2119.35 1245.52ZM2119.35 1261.73C2102.94 1261.73 2090.83 1272.86 2090.83 1288.88C2090.83 1305.28 2102.94 1316.22 2119.35 1316.22C2135.36 1316.22 2147.67 1305.28 2147.67 1288.88C2147.67 1272.86 2135.36 1261.73 2119.35 1261.73ZM2450.4 1314.66V1329.7H2379.7V1346.49C2411.83 1348.25 2430.87 1359.09 2430.87 1377.35C2430.87 1397.27 2408.22 1408.41 2370.52 1408.21C2332.43 1408.41 2309.78 1397.27 2309.78 1377.35C2309.78 1359.09 2328.82 1348.25 2361.34 1346.49V1329.7H2290.83V1314.66H2450.4ZM2370.52 1360.56C2343.76 1360.56 2328.53 1366.61 2328.53 1377.35C2328.53 1387.9 2343.76 1394.15 2370.52 1393.95C2396.89 1394.15 2412.32 1387.9 2412.32 1377.35C2412.32 1366.61 2396.89 1360.56 2370.52 1360.56ZM2436.15 1241.61V1256.45H2383.02C2385.66 1273.35 2410.27 1287.7 2442.2 1290.83L2435.56 1305.48C2405.29 1301.96 2380.19 1289.17 2370.72 1270.52C2360.95 1289.17 2335.95 1301.96 2305.68 1305.48L2299.23 1290.83C2330.68 1287.7 2355.38 1273.35 2358.02 1256.45H2305.48V1241.61H2436.15ZM2608.8 1233.6V1327.55H2590.25V1233.6H2608.8ZM2512.51 1335.94V1355.67H2590.44V1335.94H2608.8V1406.45H2494.35V1335.94H2512.51ZM2512.51 1391.22H2590.44V1370.32H2512.51V1391.22ZM2513.88 1241.61C2540.64 1241.61 2560.36 1258.21 2560.36 1282.23C2560.36 1306.26 2540.64 1322.86 2513.88 1322.66C2487.12 1322.86 2467.2 1306.26 2467.2 1282.23C2467.2 1258.21 2487.12 1241.61 2513.88 1241.61ZM2513.88 1257.23C2497.28 1257.04 2485.36 1267.39 2485.36 1282.23C2485.36 1297.27 2497.28 1307.43 2513.88 1307.43C2530.29 1307.43 2542.2 1297.27 2542.2 1282.23C2542.2 1267.39 2530.29 1257.04 2513.88 1257.23ZM2781.85 1233.6V1408.6H2763.29V1233.6H2781.85ZM2665.64 1250.59V1348.06C2691.12 1347.86 2717.98 1345.81 2746.11 1340.05L2748.64 1355.67C2717.59 1361.92 2689.47 1364.07 2661.93 1364.07H2647.28V1250.59H2665.64ZM2945.71 1233.6V1301.38H2973.84V1316.61H2945.71V1408.99H2927.16V1233.6H2945.71ZM2898.64 1250.4V1265.44H2835.36V1350.01C2864.76 1349.91 2886.83 1348.64 2911.73 1344.15L2914.07 1359.77C2886.73 1364.66 2863.49 1365.63 2830.87 1365.44H2816.81V1250.4H2898.64ZM3002.16 1393.37C2994.54 1393.37 2988.1 1387.12 2988.29 1379.5C2988.1 1371.88 2994.54 1365.63 3002.16 1365.63C3009.58 1365.63 3016.03 1371.88 3016.03 1379.5C3016.03 1387.12 3009.58 1393.37 3002.16 1393.37ZM3054.89 1393.37C3047.28 1393.37 3040.83 1387.12 3041.03 1379.5C3040.83 1371.88 3047.28 1365.63 3054.89 1365.63C3062.32 1365.63 3068.76 1371.88 3068.76 1379.5C3068.76 1387.12 3062.32 1393.37 3054.89 1393.37ZM3107.63 1393.37C3100.01 1393.37 3093.57 1387.12 3093.76 1379.5C3093.57 1371.88 3100.01 1365.63 3107.63 1365.63C3115.05 1365.63 3121.5 1371.88 3121.5 1379.5C3121.5 1387.12 3115.05 1393.37 3107.63 1393.37Z" fill="#DBDBDB"/>
</svg>
