<svg width="243" height="254" viewBox="0 0 243 254" fill="none" xmlns="http://www.w3.org/2000/svg">
<mask id="path-1-outside-1_309_72" maskUnits="userSpaceOnUse" x="-1.00001" y="-1.00001" width="244" height="256" fill="black">
<rect fill="white" x="-1.00001" y="-1.00001" width="244" height="256"/>
<path fill-rule="evenodd" clip-rule="evenodd" d="M40.4862 150.386C42.88 146.752 45.3782 143.095 47.9806 139.453C46.0462 137.014 44.0395 134.59 41.9906 132.115L41.9899 132.114C38.4492 127.837 34.782 123.407 31.143 118.484C28.9645 115.536 29.5931 111.385 32.5469 109.211C35.5009 107.038 39.6616 107.666 41.8401 110.612C45.3547 115.367 48.5129 119.172 51.813 123.148L51.8132 123.149L51.8164 123.153C53.238 124.866 54.686 126.611 56.2006 128.477C59.0385 124.868 61.9821 121.312 65.0307 117.844C65.866 116.894 66.7072 115.955 67.5532 115.027C64.2217 109.578 63.4618 108.593 59.8089 103.852C58.0016 101.507 55.4865 98.2431 51.6017 93.0654C49.402 90.1334 50.0008 85.9783 52.939 83.7834C55.8772 81.5886 60.0423 82.1865 62.242 85.1173C65.9331 90.0362 68.4007 93.24 70.2284 95.6129L70.2292 95.614C73.4276 99.7657 74.6664 101.373 77.0719 105.182C80.7899 101.543 84.5404 98.0826 88.2573 94.7839C87.6038 93.956 86.95 93.1239 86.2942 92.2853C81.7645 86.4908 78.1694 79.9761 74.6525 73.6018L74.6519 73.6007L74.6511 73.5996C73.9996 72.4194 73.3509 71.2434 72.6994 70.0773C70.9113 66.8791 72.0603 62.841 75.2658 61.0572C78.4712 59.2724 82.5194 60.4195 84.3071 63.618C85.0371 64.9231 85.7379 66.1906 86.4194 67.4228L86.4197 67.4239C89.9471 73.8038 92.9535 79.2412 96.7742 84.1281C97.2972 84.7966 97.8156 85.4575 98.3312 86.1119C100.745 84.0872 103.116 82.1268 105.424 80.2247C107.485 78.5272 109.639 76.7601 111.876 74.9566C107.428 67.4216 102.16 60.3489 96.616 53.0151C94.406 50.091 94.9899 45.9336 97.9201 43.7277C100.851 41.5227 105.018 42.1053 107.228 45.0294C112.405 51.8792 117.748 59.0215 122.425 66.7189C125.84 64.1551 129.391 61.6031 133.059 59.141C132.267 58.0755 131.488 56.997 130.723 55.9053C125.962 49.1018 122.476 43.5816 118.368 35.2225C116.752 31.9347 118.113 27.9627 121.409 26.3493C124.704 24.7368 128.685 26.095 130.302 29.3828C134.038 36.983 137.141 41.9118 141.622 48.3129C142.421 49.4567 143.242 50.586 144.082 51.7055C147.609 49.4123 151.6 46.9491 155.821 44.6548C152.747 37.9963 149.755 32.9415 145.756 26.1812L145.057 25.001C143.193 21.8458 144.244 17.7811 147.406 15.9202C150.567 14.0602 154.642 15.109 156.506 18.2631L156.643 18.4951L157.209 19.4509L157.254 19.5272L157.279 19.5693L157.284 19.5769C161.233 26.2521 164.518 31.8019 167.887 39.0937C186.701 32.894 207.493 41.9251 215.552 60.4096C221.307 73.6094 219.102 88.2612 211.043 99.0221C215.686 104.753 220.817 110.18 226.162 115.767C228.696 118.416 228.598 122.613 225.943 125.142C223.287 127.67 219.081 127.572 216.546 124.923C211.457 119.603 206.222 114.083 201.343 108.138C199.509 109.342 197.548 110.405 195.467 111.308C193.272 112.262 191.195 113.446 188.556 115.141C193.313 120.991 199.087 127.492 204.505 132.837C207.116 135.411 207.14 139.61 204.56 142.214C201.979 144.819 197.772 144.843 195.161 142.268C189.038 136.229 182.616 128.946 177.479 122.561L176.966 122.906L176.528 123.2C173.614 125.15 170.704 127.259 167.713 129.538C168.018 130.025 168.323 130.508 168.629 130.988C173.639 138.824 178.202 145.775 183.829 152.648C186.151 155.484 185.729 159.662 182.885 161.978C180.043 164.295 175.856 163.874 173.535 161.037C167.373 153.511 162.451 145.984 157.423 138.119L157.255 137.854C156.444 138.517 155.623 139.192 154.79 139.878C152.581 141.698 150.447 143.467 148.383 145.199C148.996 146.164 149.609 147.132 150.222 148.105C154.69 155.192 158.937 163.078 162.613 171.566C164.07 174.927 162.519 178.83 159.15 180.283C155.781 181.736 151.87 180.188 150.413 176.827C147.022 168.999 143.1 161.714 138.972 155.168C138.722 154.771 138.474 154.377 138.226 153.984C134.473 157.358 130.983 160.683 127.713 164.083C128.153 164.834 128.586 165.589 129.011 166.35C131.858 170.081 134.269 173.913 136.54 177.59C136.808 178.025 137.074 178.457 137.339 178.887L137.341 178.89C139.44 182.295 141.452 185.563 143.775 188.849C145.889 191.842 145.171 195.979 142.172 198.089C139.173 200.199 135.026 199.483 132.911 196.49C130.331 192.84 128.092 189.204 126.015 185.832L126.011 185.824C125.745 185.394 125.483 184.968 125.223 184.547C122.997 180.942 120.912 177.646 118.55 174.533C115.567 178.238 112.638 182.166 109.77 186.261C115.055 192.79 120.195 200.241 124.822 208.191C126.664 211.358 125.585 215.416 122.411 217.255C119.237 219.094 115.17 218.017 113.327 214.85C109.801 208.791 105.967 203.068 102.033 197.908C101.364 198.967 100.698 200.033 100.037 201.104C98.3414 203.853 96.3566 206.315 94.1461 208.477C97.6953 215.346 101.855 221.97 106.213 228.812C108.181 231.903 107.265 236.001 104.167 237.965C101.07 239.929 96.9623 239.015 94.9941 235.924C90.9483 229.571 86.7934 222.982 83.104 216.027C71.752 221.177 58.1191 220.779 46.7011 213.766C28.8944 202.829 23.059 179.849 33.2511 161.835C27.9743 156.975 23.4398 151.311 19.0016 145.768C18.158 144.714 17.3178 143.664 16.4766 142.625C14.1699 139.777 14.6144 135.602 17.4694 133.301C20.3244 130.999 24.5088 131.443 26.8155 134.291C27.7562 135.453 28.6618 136.582 29.5422 137.68L29.5449 137.683C33.3952 142.484 36.7653 146.686 40.4862 150.386Z"/>
</mask>
<path fill-rule="evenodd" clip-rule="evenodd" d="M40.4862 150.386C42.88 146.752 45.3782 143.095 47.9806 139.453C46.0462 137.014 44.0395 134.59 41.9906 132.115L41.9899 132.114C38.4492 127.837 34.782 123.407 31.143 118.484C28.9645 115.536 29.5931 111.385 32.5469 109.211C35.5009 107.038 39.6616 107.666 41.8401 110.612C45.3547 115.367 48.5129 119.172 51.813 123.148L51.8132 123.149L51.8164 123.153C53.238 124.866 54.686 126.611 56.2006 128.477C59.0385 124.868 61.9821 121.312 65.0307 117.844C65.866 116.894 66.7072 115.955 67.5532 115.027C64.2217 109.578 63.4618 108.593 59.8089 103.852C58.0016 101.507 55.4865 98.2431 51.6017 93.0654C49.402 90.1334 50.0008 85.9783 52.939 83.7834C55.8772 81.5886 60.0423 82.1865 62.242 85.1173C65.9331 90.0362 68.4007 93.24 70.2284 95.6129L70.2292 95.614C73.4276 99.7657 74.6664 101.373 77.0719 105.182C80.7899 101.543 84.5404 98.0826 88.2573 94.7839C87.6038 93.956 86.95 93.1239 86.2942 92.2853C81.7645 86.4908 78.1694 79.9761 74.6525 73.6018L74.6519 73.6007L74.6511 73.5996C73.9996 72.4194 73.3509 71.2434 72.6994 70.0773C70.9113 66.8791 72.0603 62.841 75.2658 61.0572C78.4712 59.2724 82.5194 60.4195 84.3071 63.618C85.0371 64.9231 85.7379 66.1906 86.4194 67.4228L86.4197 67.4239C89.9471 73.8038 92.9535 79.2412 96.7742 84.1281C97.2972 84.7966 97.8156 85.4575 98.3312 86.1119C100.745 84.0872 103.116 82.1268 105.424 80.2247C107.485 78.5272 109.639 76.7601 111.876 74.9566C107.428 67.4216 102.16 60.3489 96.616 53.0151C94.406 50.091 94.9899 45.9336 97.9201 43.7277C100.851 41.5227 105.018 42.1053 107.228 45.0294C112.405 51.8792 117.748 59.0215 122.425 66.7189C125.84 64.1551 129.391 61.6031 133.059 59.141C132.267 58.0755 131.488 56.997 130.723 55.9053C125.962 49.1018 122.476 43.5816 118.368 35.2225C116.752 31.9347 118.113 27.9627 121.409 26.3493C124.704 24.7368 128.685 26.095 130.302 29.3828C134.038 36.983 137.141 41.9118 141.622 48.3129C142.421 49.4567 143.242 50.586 144.082 51.7055C147.609 49.4123 151.6 46.9491 155.821 44.6548C152.747 37.9963 149.755 32.9415 145.756 26.1812L145.057 25.001C143.193 21.8458 144.244 17.7811 147.406 15.9202C150.567 14.0602 154.642 15.109 156.506 18.2631L156.643 18.4951L157.209 19.4509L157.254 19.5272L157.279 19.5693L157.284 19.5769C161.233 26.2521 164.518 31.8019 167.887 39.0937C186.701 32.894 207.493 41.9251 215.552 60.4096C221.307 73.6094 219.102 88.2612 211.043 99.0221C215.686 104.753 220.817 110.18 226.162 115.767C228.696 118.416 228.598 122.613 225.943 125.142C223.287 127.67 219.081 127.572 216.546 124.923C211.457 119.603 206.222 114.083 201.343 108.138C199.509 109.342 197.548 110.405 195.467 111.308C193.272 112.262 191.195 113.446 188.556 115.141C193.313 120.991 199.087 127.492 204.505 132.837C207.116 135.411 207.14 139.61 204.56 142.214C201.979 144.819 197.772 144.843 195.161 142.268C189.038 136.229 182.616 128.946 177.479 122.561L176.966 122.906L176.528 123.2C173.614 125.15 170.704 127.259 167.713 129.538C168.018 130.025 168.323 130.508 168.629 130.988C173.639 138.824 178.202 145.775 183.829 152.648C186.151 155.484 185.729 159.662 182.885 161.978C180.043 164.295 175.856 163.874 173.535 161.037C167.373 153.511 162.451 145.984 157.423 138.119L157.255 137.854C156.444 138.517 155.623 139.192 154.79 139.878C152.581 141.698 150.447 143.467 148.383 145.199C148.996 146.164 149.609 147.132 150.222 148.105C154.69 155.192 158.937 163.078 162.613 171.566C164.07 174.927 162.519 178.83 159.15 180.283C155.781 181.736 151.87 180.188 150.413 176.827C147.022 168.999 143.1 161.714 138.972 155.168C138.722 154.771 138.474 154.377 138.226 153.984C134.473 157.358 130.983 160.683 127.713 164.083C128.153 164.834 128.586 165.589 129.011 166.35C131.858 170.081 134.269 173.913 136.54 177.59C136.808 178.025 137.074 178.457 137.339 178.887L137.341 178.89C139.44 182.295 141.452 185.563 143.775 188.849C145.889 191.842 145.171 195.979 142.172 198.089C139.173 200.199 135.026 199.483 132.911 196.49C130.331 192.84 128.092 189.204 126.015 185.832L126.011 185.824C125.745 185.394 125.483 184.968 125.223 184.547C122.997 180.942 120.912 177.646 118.55 174.533C115.567 178.238 112.638 182.166 109.77 186.261C115.055 192.79 120.195 200.241 124.822 208.191C126.664 211.358 125.585 215.416 122.411 217.255C119.237 219.094 115.17 218.017 113.327 214.85C109.801 208.791 105.967 203.068 102.033 197.908C101.364 198.967 100.698 200.033 100.037 201.104C98.3414 203.853 96.3566 206.315 94.1461 208.477C97.6953 215.346 101.855 221.97 106.213 228.812C108.181 231.903 107.265 236.001 104.167 237.965C101.07 239.929 96.9623 239.015 94.9941 235.924C90.9483 229.571 86.7934 222.982 83.104 216.027C71.752 221.177 58.1191 220.779 46.7011 213.766C28.8944 202.829 23.059 179.849 33.2511 161.835C27.9743 156.975 23.4398 151.311 19.0016 145.768C18.158 144.714 17.3178 143.664 16.4766 142.625C14.1699 139.777 14.6144 135.602 17.4694 133.301C20.3244 130.999 24.5088 131.443 26.8155 134.291C27.7562 135.453 28.6618 136.582 29.5422 137.68L29.5449 137.683C33.3952 142.484 36.7653 146.686 40.4862 150.386Z" fill="#DD0D75"/>
<path fill-rule="evenodd" clip-rule="evenodd" d="M40.4862 150.386C42.88 146.752 45.3782 143.095 47.9806 139.453C46.0462 137.014 44.0395 134.59 41.9906 132.115L41.9899 132.114C38.4492 127.837 34.782 123.407 31.143 118.484C28.9645 115.536 29.5931 111.385 32.5469 109.211C35.5009 107.038 39.6616 107.666 41.8401 110.612C45.3547 115.367 48.5129 119.172 51.813 123.148L51.8132 123.149L51.8164 123.153C53.238 124.866 54.686 126.611 56.2006 128.477C59.0385 124.868 61.9821 121.312 65.0307 117.844C65.866 116.894 66.7072 115.955 67.5532 115.027C64.2217 109.578 63.4618 108.593 59.8089 103.852C58.0016 101.507 55.4865 98.2431 51.6017 93.0654C49.402 90.1334 50.0008 85.9783 52.939 83.7834C55.8772 81.5886 60.0423 82.1865 62.242 85.1173C65.9331 90.0362 68.4007 93.24 70.2284 95.6129L70.2292 95.614C73.4276 99.7657 74.6664 101.373 77.0719 105.182C80.7899 101.543 84.5404 98.0826 88.2573 94.7839C87.6038 93.956 86.95 93.1239 86.2942 92.2853C81.7645 86.4908 78.1694 79.9761 74.6525 73.6018L74.6519 73.6007L74.6511 73.5996C73.9996 72.4194 73.3509 71.2434 72.6994 70.0773C70.9113 66.8791 72.0603 62.841 75.2658 61.0572C78.4712 59.2724 82.5194 60.4195 84.3071 63.618C85.0371 64.9231 85.7379 66.1906 86.4194 67.4228L86.4197 67.4239C89.9471 73.8038 92.9535 79.2412 96.7742 84.1281C97.2972 84.7966 97.8156 85.4575 98.3312 86.1119C100.745 84.0872 103.116 82.1268 105.424 80.2247C107.485 78.5272 109.639 76.7601 111.876 74.9566C107.428 67.4216 102.16 60.3489 96.616 53.0151C94.406 50.091 94.9899 45.9336 97.9201 43.7277C100.851 41.5227 105.018 42.1053 107.228 45.0294C112.405 51.8792 117.748 59.0215 122.425 66.7189C125.84 64.1551 129.391 61.6031 133.059 59.141C132.267 58.0755 131.488 56.997 130.723 55.9053C125.962 49.1018 122.476 43.5816 118.368 35.2225C116.752 31.9347 118.113 27.9627 121.409 26.3493C124.704 24.7368 128.685 26.095 130.302 29.3828C134.038 36.983 137.141 41.9118 141.622 48.3129C142.421 49.4567 143.242 50.586 144.082 51.7055C147.609 49.4123 151.6 46.9491 155.821 44.6548C152.747 37.9963 149.755 32.9415 145.756 26.1812L145.057 25.001C143.193 21.8458 144.244 17.7811 147.406 15.9202C150.567 14.0602 154.642 15.109 156.506 18.2631L156.643 18.4951L157.209 19.4509L157.254 19.5272L157.279 19.5693L157.284 19.5769C161.233 26.2521 164.518 31.8019 167.887 39.0937C186.701 32.894 207.493 41.9251 215.552 60.4096C221.307 73.6094 219.102 88.2612 211.043 99.0221C215.686 104.753 220.817 110.18 226.162 115.767C228.696 118.416 228.598 122.613 225.943 125.142C223.287 127.67 219.081 127.572 216.546 124.923C211.457 119.603 206.222 114.083 201.343 108.138C199.509 109.342 197.548 110.405 195.467 111.308C193.272 112.262 191.195 113.446 188.556 115.141C193.313 120.991 199.087 127.492 204.505 132.837C207.116 135.411 207.14 139.61 204.56 142.214C201.979 144.819 197.772 144.843 195.161 142.268C189.038 136.229 182.616 128.946 177.479 122.561L176.966 122.906L176.528 123.2C173.614 125.15 170.704 127.259 167.713 129.538C168.018 130.025 168.323 130.508 168.629 130.988C173.639 138.824 178.202 145.775 183.829 152.648C186.151 155.484 185.729 159.662 182.885 161.978C180.043 164.295 175.856 163.874 173.535 161.037C167.373 153.511 162.451 145.984 157.423 138.119L157.255 137.854C156.444 138.517 155.623 139.192 154.79 139.878C152.581 141.698 150.447 143.467 148.383 145.199C148.996 146.164 149.609 147.132 150.222 148.105C154.69 155.192 158.937 163.078 162.613 171.566C164.07 174.927 162.519 178.83 159.15 180.283C155.781 181.736 151.87 180.188 150.413 176.827C147.022 168.999 143.1 161.714 138.972 155.168C138.722 154.771 138.474 154.377 138.226 153.984C134.473 157.358 130.983 160.683 127.713 164.083C128.153 164.834 128.586 165.589 129.011 166.35C131.858 170.081 134.269 173.913 136.54 177.59C136.808 178.025 137.074 178.457 137.339 178.887L137.341 178.89C139.44 182.295 141.452 185.563 143.775 188.849C145.889 191.842 145.171 195.979 142.172 198.089C139.173 200.199 135.026 199.483 132.911 196.49C130.331 192.84 128.092 189.204 126.015 185.832L126.011 185.824C125.745 185.394 125.483 184.968 125.223 184.547C122.997 180.942 120.912 177.646 118.55 174.533C115.567 178.238 112.638 182.166 109.77 186.261C115.055 192.79 120.195 200.241 124.822 208.191C126.664 211.358 125.585 215.416 122.411 217.255C119.237 219.094 115.17 218.017 113.327 214.85C109.801 208.791 105.967 203.068 102.033 197.908C101.364 198.967 100.698 200.033 100.037 201.104C98.3414 203.853 96.3566 206.315 94.1461 208.477C97.6953 215.346 101.855 221.97 106.213 228.812C108.181 231.903 107.265 236.001 104.167 237.965C101.07 239.929 96.9623 239.015 94.9941 235.924C90.9483 229.571 86.7934 222.982 83.104 216.027C71.752 221.177 58.1191 220.779 46.7011 213.766C28.8944 202.829 23.059 179.849 33.2511 161.835C27.9743 156.975 23.4398 151.311 19.0016 145.768C18.158 144.714 17.3178 143.664 16.4766 142.625C14.1699 139.777 14.6144 135.602 17.4694 133.301C20.3244 130.999 24.5088 131.443 26.8155 134.291C27.7562 135.453 28.6618 136.582 29.5422 137.68L29.5449 137.683C33.3952 142.484 36.7653 146.686 40.4862 150.386Z" stroke="white" stroke-width="30" mask="url(#path-1-outside-1_309_72)"/>
</svg>
