<svg width="211" height="201" viewBox="0 0 211 201" fill="none" xmlns="http://www.w3.org/2000/svg">
<path d="M92.3804 1.25179C90.6019 2.09447 78.6202 11.9257 75.3907 15.2496L72.8633 17.7777L69.3063 16.2327C64.0643 13.9856 58.8691 13.0493 53.1123 13.377C47.215 13.6579 43.9388 14.5474 38.5564 17.1691C29.9446 21.4293 23.7197 28.4984 20.3499 37.9083C18.9458 41.8876 18.899 42.309 18.899 49.5186C18.9458 56.4473 19.0394 57.29 20.2563 60.8948C20.9583 63.0483 21.4731 64.8741 21.3795 64.9209C21.2859 65.0145 19.7882 65.8572 17.9629 66.8403C16.1844 67.8235 11.6912 70.4919 8.08735 72.7859C2.19011 76.4375 1.34765 77.1397 0.692402 78.7783C-0.243667 81.1659 -0.243667 81.7745 0.739206 83.7876C1.72208 85.8942 3.87504 87.2051 6.30882 87.2051C7.85333 87.2051 9.21063 86.5965 13.5634 83.8812C16.512 82.0554 21.0987 79.2933 23.7665 77.842L28.6341 75.1267L31.3487 77.3738C32.8932 78.6378 35.0461 80.2296 36.2162 80.9318C37.3863 81.5872 38.3224 82.3363 38.3224 82.5235C38.3224 83.0385 31.6295 87.8137 26.8555 90.7162C24.7962 91.9803 22.5496 93.5252 21.8008 94.1806C17.7289 97.9258 20.1626 104.527 25.6386 104.527C27.6044 104.527 28.5873 104.105 32.94 101.484C38.7436 97.9258 39.3989 97.5045 45.2493 93.1507C47.6363 91.3717 49.836 90.014 50.2105 90.1545C50.9593 90.4353 60.2264 97.4109 60.554 97.9258C60.7881 98.3472 57.0906 100.828 45.2025 108.319C42.1603 110.238 39.2585 112.345 38.7436 113.047C35.795 117.12 38.65 122.785 43.658 122.785C45.5301 122.785 50.1637 120.07 64.1111 110.8C67.3873 108.647 70.2424 106.868 70.4764 106.868C70.8508 106.868 78.2926 114.311 79.4626 115.856C79.9775 116.558 79.7435 116.886 77.3097 118.431C75.812 119.414 70.6168 122.223 65.7492 124.657C60.32 127.373 56.5757 129.573 56.0141 130.322C54.7972 131.961 54.7972 135.612 55.9673 137.251C57.3246 139.077 60.0392 140.247 61.9581 139.919C64.1579 139.498 77.1693 132.991 83.3473 129.199L88.4021 126.109L91.9124 130.275L95.4694 134.489L89.9934 138C82.6921 142.775 74.7823 148.674 73.0506 150.593C71.0848 152.84 70.804 154.573 71.9273 157.147C73.0038 159.535 74.8291 160.705 77.4969 160.705C79.6031 160.659 80.0243 160.425 84.9386 156.679C88.5425 153.87 100.29 145.912 102.303 144.835C103.239 144.367 103.566 144.648 106.609 148.861L109.885 153.449L108.153 154.854C104.175 158.084 95.0014 166.417 92.5676 168.992C91.0231 170.584 89.8062 172.363 89.5722 173.252C88.6361 177.653 93.4101 181.96 97.482 180.368C98.2308 180.087 101.273 177.606 104.268 174.844C112.646 167.026 116.531 163.842 117.046 164.357C117.28 164.591 118.824 167.353 120.416 170.443L123.317 176.108L120.041 178.87C118.216 180.415 114.331 183.973 111.383 186.782C106.375 191.557 106.094 191.978 105.86 193.991C105.439 197.783 108.153 200.967 111.804 200.967C114.05 200.92 114.846 200.405 120.556 195.115C123.364 192.54 127.015 189.216 128.7 187.718L131.836 185.05L135.159 187.063C140.588 190.433 145.081 191.697 152.336 191.978C157.484 192.165 159.075 192.025 162.398 191.182C175.55 187.905 185.753 177.793 189.03 164.732C190.153 160.237 190.246 152.606 189.264 147.831C188.889 146.052 188.562 144.507 188.562 144.46C188.562 144.46 190.714 143.29 193.382 141.979C202.041 137.579 209.155 133.131 210.138 131.539C211.87 128.684 210.934 124.985 208.079 123.253C205.458 121.614 203.819 121.989 197.454 125.641C190.293 129.714 183.366 133.225 183.086 132.944C182.992 132.803 181.775 130.837 180.465 128.59C179.107 126.296 177.609 123.862 177.188 123.206L176.346 121.942L182.571 117.776C186.034 115.482 190.808 112.579 193.242 111.362C198.531 108.647 200.122 107.289 200.777 104.901C201.152 103.403 201.058 102.748 200.309 101.062C199.139 98.394 197.22 97.3172 194.225 97.5981C191.557 97.879 184.677 101.577 175.971 107.383C172.555 109.677 169.559 111.456 169.372 111.315C169.138 111.175 167.968 109.63 166.751 107.898C165.534 106.165 164.036 104.105 163.428 103.263L162.305 101.812L167.594 98.3004C176.439 92.3548 183.6 86.8306 184.49 85.2388C186.643 81.2127 183.881 76.4375 179.341 76.4375C176.814 76.4375 176.346 76.6716 170.776 80.885C164.224 85.8474 154.769 91.9803 154.348 91.5589C152.148 89.265 144.145 79.0592 144.332 78.7783C144.847 77.9356 153.272 72.5518 159.543 68.9938C163.288 66.8871 166.704 64.7336 167.126 64.2187C168.108 63.0483 168.623 60.4734 168.249 58.7881C168.062 58.1326 167.219 56.8686 166.33 55.9791C163.99 53.6384 161.556 53.7788 156.314 56.6346C149.2 60.4734 143.022 64.2655 139.465 66.934L135.954 69.5556L131.134 64.4527C128.513 61.6438 126.36 59.2562 126.313 59.1158C126.313 58.9753 127.343 58.1795 128.559 57.3368C134.597 53.1702 145.97 44.2284 146.626 43.1049C149.153 38.8447 145.128 33.0863 140.26 34.0226C139.277 34.2099 135.861 36.4571 131.227 39.9682C127.109 43.1049 122.194 46.7097 120.275 47.9737L116.765 50.2676L115.127 48.6759C114.191 47.7864 111.429 45.4456 108.996 43.4326C106.562 41.4195 104.549 39.5937 104.549 39.4064C104.549 38.9383 110.213 34.1631 116.905 29.0134C122.054 25.0341 123.505 23.2551 123.505 20.9611C123.505 17.8713 120.416 14.641 117.467 14.641C115.314 14.641 112.553 16.4668 103.613 23.8169C98.7457 27.843 94.4866 31.2137 94.1589 31.3542C93.5037 31.6351 83.9558 25.0809 83.9558 24.3318C83.9558 24.0509 86.7172 21.5229 90.0402 18.7608C99.5413 10.8958 100.477 9.95947 100.805 7.99323C101.647 3.45212 96.4991 -0.667648 92.3804 1.25179Z" fill="#DD0D75"/>
</svg>
