<svg width="297" height="298" viewBox="0 0 297 298" fill="none" xmlns="http://www.w3.org/2000/svg">
<path d="M135.38 49.2518C133.602 50.0945 121.62 59.9257 118.391 63.2496L115.863 65.7777L112.306 64.2327C107.064 61.9856 101.869 61.0493 96.1123 61.377C90.215 61.6579 86.9388 62.5474 81.5564 65.1691C72.9446 69.4293 66.7197 76.4984 63.3499 85.9083C61.9458 89.8876 61.899 90.309 61.899 97.5186C61.9458 104.447 62.0394 105.29 63.2563 108.895C63.9583 111.048 64.4731 112.874 64.3795 112.921C64.2859 113.015 62.7882 113.857 60.9629 114.84C59.1844 115.823 54.6912 118.492 51.0873 120.786C45.1901 124.438 44.3477 125.14 43.6924 126.778C42.7563 129.166 42.7563 129.774 43.7392 131.788C44.7221 133.894 46.875 135.205 49.3088 135.205C50.8533 135.205 52.2106 134.596 56.5634 131.881C59.512 130.055 64.0987 127.293 66.7665 125.842L71.6341 123.127L74.3487 125.374C75.8932 126.638 78.0461 128.23 79.2162 128.932C80.3863 129.587 81.3224 130.336 81.3224 130.524C81.3224 131.039 74.6295 135.814 69.8555 138.716C67.7962 139.98 65.5496 141.525 64.8008 142.181C60.7289 145.926 63.1626 152.527 68.6386 152.527C70.6044 152.527 71.5873 152.105 75.94 149.484C81.7436 145.926 82.3989 145.505 88.2493 141.151C90.6363 139.372 92.836 138.014 93.2105 138.154C93.9593 138.435 103.226 145.411 103.554 145.926C103.788 146.347 100.091 148.828 88.2025 156.319C85.1603 158.238 82.2585 160.345 81.7436 161.047C78.795 165.12 81.65 170.785 86.658 170.785C88.5301 170.785 93.1637 168.07 107.111 158.8C110.387 156.647 113.242 154.868 113.476 154.868C113.851 154.868 121.293 162.311 122.463 163.856C122.977 164.558 122.743 164.886 120.31 166.431C118.812 167.414 113.617 170.223 108.749 172.657C103.32 175.373 99.5757 177.573 99.0141 178.322C97.7972 179.961 97.7972 183.612 98.9673 185.251C100.325 187.077 103.039 188.247 104.958 187.919C107.158 187.498 120.169 180.991 126.347 177.199L131.402 174.109L134.912 178.275L138.469 182.489L132.993 186C125.692 190.775 117.782 196.674 116.051 198.593C114.085 200.84 113.804 202.573 114.927 205.147C116.004 207.535 117.829 208.705 120.497 208.705C122.603 208.659 123.024 208.425 127.939 204.679C131.543 201.87 143.29 193.912 145.303 192.835C146.239 192.367 146.566 192.648 149.609 196.861L152.885 201.449L151.153 202.854C147.175 206.084 138.001 214.417 135.568 216.992C134.023 218.584 132.806 220.363 132.572 221.252C131.636 225.653 136.41 229.96 140.482 228.368C141.231 228.087 144.273 225.606 147.268 222.844C155.646 215.026 159.531 211.842 160.046 212.357C160.28 212.591 161.824 215.353 163.416 218.443L166.317 224.108L163.041 226.87C161.216 228.415 157.331 231.973 154.383 234.782C149.375 239.557 149.094 239.978 148.86 241.991C148.439 245.783 151.153 248.967 154.804 248.967C157.05 248.92 157.846 248.405 163.556 243.115C166.364 240.54 170.015 237.216 171.7 235.718L174.836 233.05L178.159 235.063C183.588 238.433 188.081 239.697 195.336 239.978C200.484 240.165 202.075 240.025 205.398 239.182C218.55 235.905 228.753 225.793 232.03 212.732C233.153 208.237 233.246 200.606 232.264 195.831C231.889 194.052 231.562 192.507 231.562 192.46C231.562 192.46 233.714 191.29 236.382 189.979C245.041 185.579 252.155 181.131 253.138 179.539C254.87 176.684 253.934 172.985 251.079 171.253C248.458 169.614 246.819 169.989 240.454 173.641C233.293 177.714 226.366 181.225 226.086 180.944C225.992 180.803 224.775 178.837 223.465 176.59C222.107 174.296 220.609 171.862 220.188 171.206L219.346 169.942L225.571 165.776C229.034 163.482 233.808 160.579 236.242 159.362C241.531 156.647 243.122 155.289 243.777 152.901C244.152 151.403 244.058 150.748 243.309 149.062C242.139 146.394 240.22 145.317 237.225 145.598C234.557 145.879 227.677 149.577 218.971 155.383C215.555 157.677 212.559 159.456 212.372 159.315C212.138 159.175 210.968 157.63 209.751 155.898C208.534 154.165 207.036 152.105 206.428 151.263L205.305 149.812L210.594 146.3C219.439 140.355 226.6 134.831 227.49 133.239C229.643 129.213 226.881 124.438 222.341 124.438C219.814 124.438 219.346 124.672 213.776 128.885C207.224 133.847 197.769 139.98 197.348 139.559C195.148 137.265 187.145 127.059 187.332 126.778C187.847 125.936 196.272 120.552 202.543 116.994C206.288 114.887 209.704 112.734 210.126 112.219C211.108 111.048 211.623 108.473 211.249 106.788C211.062 106.133 210.219 104.869 209.33 103.979C206.99 101.638 204.556 101.779 199.314 104.635C192.2 108.473 186.022 112.265 182.465 114.934L178.954 117.556L174.134 112.453C171.513 109.644 169.36 107.256 169.313 107.116C169.313 106.975 170.343 106.179 171.559 105.337C177.597 101.17 188.97 92.2284 189.626 91.1049C192.153 86.8447 188.128 81.0863 183.26 82.0226C182.277 82.2099 178.861 84.4571 174.227 87.9682C170.109 91.1049 165.194 94.7097 163.275 95.9737L159.765 98.2676L158.127 96.6759C157.191 95.7864 154.429 93.4456 151.996 91.4326C149.562 89.4195 147.549 87.5937 147.549 87.4064C147.549 86.9383 153.213 82.1631 159.905 77.0134C165.054 73.0341 166.505 71.2551 166.505 68.9611C166.505 65.8713 163.416 62.641 160.467 62.641C158.314 62.641 155.553 64.4668 146.613 71.8169C141.746 75.843 137.487 79.2137 137.159 79.3542C136.504 79.6351 126.956 73.0809 126.956 72.3318C126.956 72.0509 129.717 69.5229 133.04 66.7608C142.541 58.8958 143.477 57.9595 143.805 55.9932C144.647 51.4521 139.499 47.3324 135.38 49.2518Z" fill="#DD0D75"/>
</svg>
