<svg width="5736" height="1104" viewBox="0 0 5736 1104" fill="none" xmlns="http://www.w3.org/2000/svg">
<path d="M726.933 1.81512C714.133 6.48179 705.867 17.9485 705.867 31.0151C705.867 35.9485 707.2 41.9484 710 49.4151C712.267 55.5484 716.4 67.0151 719.2 75.1484C722 83.1484 726.133 94.8818 728.4 101.148C733.333 114.615 740.533 139.282 740.533 142.615C740.533 144.348 737.867 145.815 729.6 148.482C723.467 150.482 716.8 152.882 714.533 153.948C699.333 160.748 679.333 168.348 678.667 167.682C678.4 167.415 675.333 160.882 671.867 153.148C668.4 145.415 663.867 135.415 661.733 130.882C654.667 115.682 643.333 85.0151 635.2 58.4818C631.2 45.8151 630.133 43.8151 624 37.8151C611.6 25.6818 599.467 24.7485 584.933 34.7485C574.533 41.8151 570 53.6818 572.667 66.6151C575.333 79.2818 594.4 133.415 602.267 150.482C619.733 188.348 621.867 193.682 620.267 194.748C619.333 195.282 618.133 195.815 617.6 195.815C617.2 195.815 605.467 201.282 591.733 207.815C578 214.482 566.133 219.682 565.333 219.415C564.533 219.015 559.733 209.015 554.667 197.015C546.933 178.348 536.4 156.082 515.2 112.882C506.533 95.2818 498.267 89.1484 483.333 89.1484C472.4 89.1484 463.467 93.6817 457.867 102.215C448.8 115.815 450 121.148 470.267 162.748C489.333 201.815 509.067 247.148 508.133 249.682C507.733 250.615 503.6 253.548 498.933 256.215C473.6 270.348 458.667 278.748 448.133 285.015C441.6 288.748 435.733 291.415 435.067 291.015C433.333 289.948 424 271.148 416.8 254.482C413.467 246.748 405.467 224.882 399.067 205.948C392.533 186.882 385.733 169.015 383.867 166.348C379.867 160.215 370.533 154.482 362.133 152.882C350.133 150.748 336.133 158.615 330.4 171.015C328.667 174.748 327.2 180.348 327.2 183.282C327.2 195.948 359.733 283.948 374.4 310.882C377.733 317.015 380.533 322.615 380.533 323.282C380.4 323.948 374.667 328.082 367.733 332.482C360.8 336.882 347.467 345.548 338.133 351.682C328.8 357.815 320.533 363.015 319.867 363.415C319.067 363.682 317.333 360.748 316 357.015C314.667 353.282 308.933 341.415 303.467 330.615C298 319.948 287.067 298.482 279.2 283.015C271.467 267.548 263.733 253.015 262.133 250.748C255.2 241.148 236.933 236.882 225.2 242.348C218.133 245.548 210.4 254.348 208.4 261.415C205.2 273.548 206.533 277.282 232.4 327.948C255.733 373.948 266.667 398.348 265.333 401.815C265.067 402.748 258.533 408.482 250.933 414.615C243.333 420.615 229.333 432.348 219.6 440.748C210 449.015 201.733 455.815 201.467 455.815C201.067 455.815 197.6 450.215 194 443.415C190.267 436.748 185.6 428.482 183.733 425.148C177.733 414.748 158.533 379.682 152.133 367.015C144.667 352.615 139.867 347.415 131.6 344.615C115.6 339.148 100 345.282 92.9333 359.415C90 365.682 89.6 367.815 90.1333 375.682C90.8 384.082 91.7333 386.615 103.867 409.282C111.067 422.748 120.4 439.815 124.533 447.148C128.8 454.482 137.067 469.415 143.067 480.215L154 499.948L142.933 511.548C136.8 517.815 126.8 528.348 120.667 534.882L109.333 546.615L106.933 543.548C102 537.415 76.1333 493.282 67.8667 477.148C53.6 449.148 46.9333 443.148 30.5333 443.148C16.9333 443.148 9.86667 447.682 2 461.148C0.8 463.148 0 468.082 0 473.148C0 481.548 0.266666 482.348 13.0667 505.815C37.7333 550.882 48.8 569.415 60 584.082C65.8667 591.548 67.0667 594.882 64.5333 596.482C63.8667 596.882 59.8667 602.482 55.7333 608.882C39.3333 633.815 31.7333 653.815 24.5333 691.148C23.6 696.082 23.2 705.415 23.6 714.482C25.6 756.082 38.2667 792.882 61.0667 822.215C70.2667 834.215 94.8 857.415 106.4 865.015C120.267 874.348 140.933 883.948 156.533 888.348C163.467 890.348 171.333 892.482 173.867 893.282C185.733 896.882 227.867 896.082 247.2 891.948C254.533 890.348 255.2 891.015 259.333 903.682C264.4 919.282 280.8 962.615 285.2 972.482C286.267 974.615 288.933 981.282 291.067 987.148C297.6 1004.22 308.533 1013.15 323.067 1013.15C332 1013.15 336.133 1011.42 342.933 1004.75C350.667 997.282 352.533 993.282 352.933 984.082C353.2 977.282 351.867 973.415 342.133 948.482C336 933.015 329.867 918.082 328.533 915.148C325.467 908.215 312.533 868.482 312.533 865.948C312.533 864.882 316 861.282 320.267 857.948C324.4 854.748 334.4 845.415 342.533 837.282C350.533 829.148 357.867 822.482 358.667 822.482C361.467 822.482 382.533 868.615 395.2 902.482C402.533 922.082 412 930.482 426.933 930.482C436.933 930.482 442.8 928.082 448.933 921.282C455.2 914.215 456.267 912.082 457.333 903.682C458.133 896.215 458.267 896.748 448.533 869.815C441.2 849.415 414.667 792.215 406.4 778.882C405.333 777.282 404.533 775.015 404.533 773.948C404.533 772.215 442.667 734.748 451.6 727.682C454.8 725.282 455.733 725.015 457.2 726.615C459.333 728.748 471.067 756.082 484.667 790.482C497.867 823.682 504.8 839.282 508.133 843.415L511.067 847.148L511.2 772.348L512.533 611.948C512.533 552.348 512.8 543.548 514.8 537.682C519.2 524.748 527.467 515.148 538.8 510.348C544.533 507.948 550.267 507.815 690 507.815C826.5 508 830 507.302 835.2 505.282C838.5 504 838.4 501.682 850.933 497.415C859.467 494.348 870.133 491.015 874.667 489.815C879.2 488.748 886.8 486.348 891.733 484.482C896.667 482.615 901.2 481.415 901.867 481.815C902.533 482.215 905.2 486.615 908 491.548C916.933 507.815 913.067 506.482 952.8 506.482C976.8 506.482 987.2 506.082 987.2 505.015C987.2 504.215 986.133 501.948 984.667 500.082C980.267 493.682 957.6 455.415 955.733 451.148C954.133 447.148 954.267 446.882 962 438.348C972.267 427.282 986.267 407.148 992.667 394.482C1003.6 372.348 1012.53 337.415 1012.53 316.215C1012.53 281.948 1004 248.748 988.4 221.682C977.467 202.748 972 195.548 956.4 180.482C927.867 152.748 901.867 139.282 858.533 129.415C851.867 127.948 842.267 127.415 825.2 127.415H801.067L797.333 113.948C792.8 98.2151 786.533 79.1485 779.867 60.4818C777.2 53.1485 773.2 42.0818 771.067 35.8151C763.733 14.6151 759.6 8.8818 747.867 3.2818C739.733 -0.584868 734.4 -0.984876 726.933 1.81512Z" fill="#DD0D75"/>
<path d="M569.466 560.883C567.333 563.149 567.199 582.349 567.199 833.683V1103.95L688.266 1103.42C791.599 1103.02 810.666 1102.62 819.333 1100.75C847.733 1094.88 873.066 1086.88 892.533 1077.55C902.399 1072.75 908.666 1069.02 926.399 1057.28C931.466 1053.95 936.799 1050.48 938.266 1049.55C944.666 1045.82 971.466 1019.02 981.733 1006.08C987.999 998.349 997.199 984.349 1002.53 974.883C1011.33 958.883 1024.67 928.749 1026.13 921.149C1026.53 919.283 1028.13 913.283 1029.6 907.816C1039.2 872.349 1041.33 819.549 1034.67 780.883C1028.93 747.416 1019.73 719.683 1006.4 694.749C979.866 645.416 943.066 610.349 891.999 585.549C874.266 576.883 862.133 572.483 840.533 567.283C809.199 559.683 805.066 559.416 683.066 558.883C575.866 558.483 571.599 558.483 569.466 560.883ZM791.466 663.816C806.799 667.283 826.799 672.349 828.533 673.283C829.599 673.816 835.599 676.749 841.733 679.816C857.333 687.549 862.133 691.016 875.199 704.616C899.066 729.416 911.599 755.416 917.999 793.283C920.399 807.549 920.666 813.549 920.133 837.149C919.333 873.416 914.799 894.883 902.799 919.949C887.466 951.816 862.266 975.549 829.599 989.149C808.133 997.949 800.533 998.883 740.266 999.416L685.866 999.949V832.083C685.866 739.816 686.266 663.816 686.799 663.416C688.133 661.949 785.199 662.349 791.466 663.816Z" fill="#DD0D75"/>
<path d="M1085.87 831.15V1103.82H1144.53H1203.2V831.15V558.483H1144.53H1085.87V831.15Z" fill="#DD0D75"/>
<path d="M1270.8 559.416C1270.27 559.816 1269.87 682.616 1269.87 832.083V1103.82H1329.2H1388.53L1388.8 929.416L1389.2 755.15L1392.67 758.75C1394.67 760.883 1404.67 774.483 1415.2 789.15C1425.6 803.95 1434.93 816.616 1435.73 817.55C1436.67 818.483 1441.2 824.883 1445.87 831.816C1450.53 838.75 1456.67 847.15 1459.33 850.483C1462 853.816 1467.07 860.616 1470.53 865.816C1474.13 870.883 1477.33 875.416 1477.87 875.816C1478.27 876.216 1484.27 884.616 1491.2 894.483C1498.13 904.35 1506.53 916.083 1510 920.483C1513.33 924.883 1518.67 932.35 1521.87 937.15C1525.07 941.95 1531.87 951.416 1537.07 958.35C1547.2 971.55 1548.67 973.55 1557.73 986.75C1569.33 1003.42 1574 1009.15 1575.2 1008.48C1575.73 1008.08 1580.67 1001.68 1586 994.083C1591.33 986.616 1596.13 980.216 1596.53 979.816C1597.07 979.416 1599.2 976.483 1601.33 973.283C1607.6 963.816 1608.93 961.95 1614 955.683C1616.67 952.483 1623.2 943.55 1628.4 935.816C1633.73 928.083 1643.73 913.95 1650.67 904.483C1657.73 894.883 1666.53 882.75 1670.27 877.283C1674.13 871.816 1682.67 860.216 1689.2 851.283C1695.87 842.35 1707.47 826.216 1715.2 815.416C1722.93 804.616 1733.33 790.216 1738.27 783.416C1743.33 776.75 1749.47 767.95 1752 764.083C1754.53 760.35 1757.47 757.15 1758.4 757.15C1761.47 757.15 1763.73 764.616 1762 768.75C1760.93 771.55 1760.53 817.15 1760.8 937.816L1761.2 1103.15L1820.27 1103.55L1879.2 1103.82V831.15V558.483H1815.6C1780.53 558.483 1751.2 559.016 1750.27 559.55C1749.33 560.083 1745.2 565.683 1741.07 571.816C1736.93 578.083 1728 591.15 1721.2 601.15C1707.6 621.15 1661.33 689.683 1654 701.15C1651.33 705.15 1646.27 712.616 1642.8 717.816C1633.6 731.416 1613.73 760.75 1594.27 789.816C1581.87 808.083 1576.53 815.15 1574.67 815.15C1572.67 815.15 1565.2 805.016 1546.53 777.15C1532.53 756.216 1514.8 729.816 1507.07 718.483C1444.67 625.95 1430 604.216 1415.73 583.15L1399.6 559.15L1335.6 558.75C1300.4 558.616 1271.2 558.883 1270.8 559.416Z" fill="#DD0D75"/>
<path d="M1949.47 559.416C1948.94 559.816 1948.54 682.616 1948.54 832.083V1103.82H2007.2H2065.87V831.15V558.483H2008.14C1976.27 558.483 1949.87 558.883 1949.47 559.416Z" fill="#DD0D75"/>
<path d="M3039.87 560.482C3005.47 564.216 2973.33 572.749 2948.93 584.882C2915.87 601.149 2900.4 612.349 2875.07 638.082C2852.4 661.149 2841.6 676.216 2827.87 704.482C2806.8 747.682 2799.2 787.549 2800.93 845.816C2802.4 894.082 2812.8 931.949 2836.67 975.816C2844.67 990.482 2859.07 1009.15 2875.2 1025.68C2914.8 1066.22 2959.07 1089.15 3018.4 1099.82C3030.53 1102.08 3038.93 1102.48 3068.8 1102.48C3088.53 1102.48 3109.07 1101.82 3114.27 1101.02C3129.47 1098.88 3153.47 1093.28 3160.93 1090.22C3164.8 1088.75 3170.93 1086.62 3174.53 1085.55C3185.6 1082.35 3215.6 1065.95 3232.27 1054.22C3255.07 1038.08 3278 1014.62 3292.67 992.482C3309.73 966.749 3318 949.549 3328.4 917.682C3338.53 886.882 3343.07 833.682 3338.67 798.482C3334.67 766.216 3334.4 764.616 3327.33 740.882C3322.4 724.082 3309.6 696.482 3299.33 680.482C3297.47 677.549 3295.33 674.082 3294.53 673.016C3287.33 661.549 3281.47 654.082 3270.53 642.616C3245.33 616.349 3225.47 601.949 3191.87 585.549C3173.33 576.482 3161.73 572.349 3139.33 567.149C3105.6 559.149 3072.13 557.016 3039.87 560.482ZM3107.87 653.949C3141.33 660.216 3166.67 674.349 3191.07 700.349C3209.87 720.216 3224.4 751.016 3231.2 785.549C3233.87 798.749 3234 803.149 3233.47 836.216C3232.93 870.082 3232.67 873.416 3229.33 887.016C3223.47 910.616 3214 932.616 3202 950.216C3195.73 959.416 3174.53 979.949 3164.13 986.882C3155.6 992.616 3135.73 1001.95 3128.67 1003.68C3126 1004.35 3119.07 1006.22 3113.2 1007.82C3104.4 1010.22 3097.73 1010.88 3075.47 1011.42C3047.07 1012.22 3043.73 1011.82 3019.87 1005.82C2992 998.749 2971.07 986.349 2950.4 965.016C2938.93 952.882 2934.8 946.882 2926.27 929.816C2912.13 901.682 2907.2 879.016 2906.27 837.816C2905.07 787.549 2912.93 753.949 2934.53 718.482C2941.33 707.149 2949.2 698.349 2963.6 685.549C2977.87 672.749 3003.73 660.216 3027.2 654.882C3045.87 650.616 3087.2 650.082 3107.87 653.949Z" fill="#333333"/>
<path d="M2139.47 831.416L2139.87 1097.82H2192.53H2245.2L2245.6 917.416C2245.73 806.216 2246.4 737.149 2247.07 737.416C2248.53 737.949 2261.07 753.949 2274.53 772.616C2279.73 779.682 2288.13 791.282 2293.2 798.349C2298.4 805.416 2304.13 813.549 2306.13 816.482C2308.13 819.416 2312.4 825.416 2315.73 829.816C2318.93 834.216 2324.93 842.616 2329.07 848.482C2340.4 864.616 2344.67 870.349 2352.53 880.882C2356.53 886.082 2363.47 895.549 2367.87 901.816C2372.27 908.082 2380.4 919.416 2385.87 926.882C2391.33 934.349 2398.93 944.749 2402.53 949.949C2422.8 978.749 2427.87 985.549 2432.93 991.282L2438.67 997.549L2446 988.349C2450 983.282 2455.07 976.616 2457.2 973.416C2459.47 970.349 2463.33 964.882 2465.87 961.282C2468.4 957.816 2475.2 948.349 2480.93 940.349C2486.67 932.349 2497.47 917.282 2504.93 907.016C2512.4 896.616 2528.4 874.349 2540.4 857.682C2552.53 840.882 2565.07 823.416 2568.4 818.882C2571.73 814.349 2579.07 804.216 2584.53 796.482C2590 788.616 2597.2 778.616 2600.53 774.482C2603.87 770.216 2608.93 763.282 2611.87 759.016C2619.6 747.949 2628.53 737.149 2630 737.149C2630.67 737.149 2631.2 805.282 2631.2 917.816V1098.48H2683.87H2736.53V831.816V565.149H2676.67H2616.67L2608 578.082C2603.2 585.282 2593.2 600.082 2585.73 611.149C2557.73 652.482 2516.13 714.216 2452.53 808.882C2446.53 817.949 2440.8 825.682 2439.73 826.082C2436.93 827.149 2434.67 824.749 2425.2 810.616C2384.93 750.482 2339.73 683.682 2309.6 639.149C2290 610.216 2273.87 586.216 2273.87 585.682C2273.87 585.416 2270.53 580.616 2266.53 575.149L2259.07 565.149H2199.2H2139.2L2139.47 831.416Z" fill="#333333"/>
<path d="M3399.2 831.816V1098.48H3451.87H3504.53V916.749C3504.53 816.882 3505.07 734.349 3505.73 733.416C3506.8 731.549 3516.53 744.349 3537.07 774.482C3542.8 782.882 3549.6 792.749 3552.27 796.482C3554.93 800.082 3561.87 810.349 3567.87 819.149C3579.47 836.482 3623.33 899.682 3627.47 905.149C3630.53 909.149 3676.93 976.749 3686.8 991.416C3690.53 997.149 3694.8 1003.28 3696.13 1005.15C3699.07 1009.15 3730.27 1054.08 3743.33 1073.15C3748.67 1080.88 3755.07 1089.68 3757.47 1092.75L3762 1098.48H3821.33H3880.53V831.816V565.149H3827.87H3775.2V748.216C3775.2 849.016 3774.8 931.816 3774.27 932.216C3772.93 933.549 3767.6 926.882 3749.87 901.149C3741.07 888.349 3725.33 865.549 3714.93 850.482C3704.53 835.416 3694 820.082 3691.73 816.482C3689.33 812.749 3682.93 803.682 3677.6 796.082C3672.27 788.482 3665.73 779.016 3663.2 775.149C3660.67 771.282 3655.73 763.949 3652.27 758.882C3638.4 739.016 3635.33 734.616 3625.87 720.482C3620.53 712.349 3612.93 701.549 3609.2 696.482C3605.47 691.282 3596.4 678.482 3589.2 667.816C3582 657.149 3573.07 644.082 3569.33 638.616C3565.6 633.149 3562 627.816 3561.2 626.749C3560.53 625.549 3556.93 620.349 3553.2 615.282C3549.6 610.082 3542.13 599.149 3536.8 591.149C3531.33 583.016 3525.07 573.949 3522.8 570.749L3518.8 565.149H3458.93H3399.2V831.816Z" fill="#333333"/>
<path d="M4103.87 568.35C4078.8 573.016 4057.87 581.15 4033.87 595.55C4015.87 606.35 3995.47 626.75 3986 643.283C3971.33 669.417 3967.2 685.55 3967.2 716.883C3967.33 759.55 3975.47 780.083 4003.73 808.883C4017.47 822.883 4022.13 826.75 4035.2 834.483C4043.6 839.417 4056.53 845.817 4063.87 848.483C4071.2 851.15 4078.13 853.95 4079.33 854.617C4083.07 856.617 4135.33 873.15 4145.87 875.683C4164.27 880.217 4202.4 893.55 4212.13 898.883C4225.07 906.083 4234.53 914.617 4238.93 923.017C4242.13 929.017 4242.53 931.283 4242.53 941.817C4242.53 960.617 4235.6 975.017 4220.67 987.283C4200.67 1003.82 4179.73 1010.48 4148.13 1010.48C4129.07 1010.48 4122.13 1009.28 4103.47 1003.02C4086.4 997.283 4059.33 979.283 4039.6 960.617L4024.8 946.483L4011.07 957.55C4003.47 963.55 3995.87 969.417 3994.27 970.483C3992.8 971.55 3984.4 978.217 3975.6 985.15C3966.93 992.217 3957.07 999.95 3953.6 1002.48C3950 1004.88 3947.2 1007.28 3947.2 1007.82C3947.2 1009.02 3965.73 1026.75 3976.53 1035.95C4000.67 1056.48 4031.47 1073.68 4066.53 1086.35C4086.53 1093.42 4097.2 1096.08 4119.2 1099.42C4135.73 1101.82 4176.67 1101.02 4191.87 1097.95C4197.07 1096.88 4204.8 1095.42 4209.2 1094.48C4220.8 1092.22 4248.8 1081.95 4261.2 1075.28C4295.6 1057.02 4320 1033.02 4335.07 1002.35C4352.13 967.683 4352.8 915.683 4336.67 884.083C4331.2 873.417 4321.87 861.55 4309.6 849.817C4296.13 836.75 4286.93 830.217 4270.53 821.817C4247.2 809.95 4233.33 804.617 4179.2 786.483C4117.73 766.083 4098.67 757.683 4085.47 745.283C4075.47 735.95 4072.53 729.017 4072.53 714.483C4072.53 698.217 4076.67 687.55 4087.2 677.017C4100.53 663.55 4116.67 656.75 4140.4 654.35C4162.93 652.217 4176.53 655.017 4198.53 666.083C4215.87 674.883 4224.93 681.417 4239.2 695.283L4251.87 707.55L4256 704.083C4258.27 702.083 4264.53 697.15 4269.87 693.15C4275.2 689.15 4282.27 683.683 4285.33 681.15C4288.53 678.617 4294.27 673.95 4298.13 670.883C4312.13 659.55 4326.53 647.417 4326.93 646.617C4327.2 645.683 4301.87 620.483 4294.67 614.617C4287.33 608.617 4268 597.017 4252.93 589.683C4213.2 570.35 4190.8 565.15 4147.2 565.283C4124.93 565.417 4116.93 565.95 4103.87 568.35Z" fill="#333333"/>
<path d="M4372.54 609.816V654.482H4447.2H4521.87L4522.14 876.082L4522.54 1097.82L4574.94 1098.22L4627.2 1098.48V876.482V654.482H4701.2H4775.2V609.816V565.149H4573.87H4372.54V609.816Z" fill="#333333"/>
<path d="M4824.54 831.816V1098.48H5020.54H5216.54V1053.15V1007.82H5073.2H4929.87V938.482V869.149H5051.6C5168 869.149 5173.6 869.016 5175.6 866.749C5177.6 864.616 5177.87 859.416 5177.87 822.216C5177.87 785.016 5177.6 779.949 5175.74 779.282C5174.54 778.882 5118.8 778.482 5051.74 778.482H4929.87V716.482V654.482H5073.2H5216.54V609.816V565.149H5020.54H4824.54V831.816Z" fill="#333333"/>
<path d="M5287.2 831.816V1098.48L5339.6 1098.22L5391.87 1097.82L5392.27 1017.42L5392.53 937.149H5439.87H5487.07L5507.07 964.082C5518.13 979.016 5533.33 999.549 5541.07 1009.82C5548.67 1020.08 5558.67 1033.82 5563.33 1040.48C5568 1047.02 5576.67 1058.75 5582.53 1066.48C5588.4 1074.22 5596.13 1084.48 5599.73 1089.42L5606.13 1098.48H5670.67C5706.13 1098.48 5735.2 1098.08 5735.2 1097.68C5735.2 1097.15 5733.07 1094.22 5730.53 1091.02C5728 1087.95 5725.87 1085.02 5725.87 1084.48C5725.87 1084.08 5721.87 1078.48 5716.93 1072.22C5711.87 1065.95 5706.8 1059.28 5705.6 1057.15C5703.6 1053.68 5689.87 1035.15 5669.2 1007.82C5661.6 997.816 5648.93 979.949 5645.2 974.216C5644.53 973.016 5639.87 966.882 5634.93 960.616C5629.87 954.216 5625.87 948.616 5625.87 948.082C5625.87 947.416 5624.8 945.816 5623.47 944.349C5618.53 939.016 5605.87 921.149 5605.87 919.549C5605.87 918.616 5611.47 914.349 5618.27 910.082C5636.13 898.749 5638.53 897.016 5653.2 883.416C5677.07 861.682 5689.6 843.549 5699.73 816.616C5710 789.282 5713.73 752.882 5709.87 716.482C5707.73 696.349 5695.73 659.282 5687.07 646.482C5685.87 644.616 5681.87 638.616 5678.13 633.016C5657.6 602.082 5619.73 576.082 5585.2 569.149C5580.8 568.349 5574.67 567.016 5571.6 566.349C5568.4 565.682 5506.27 565.149 5426.67 565.149H5287.2V831.816ZM5542.13 656.482C5558.13 659.816 5567.6 665.149 5579.47 677.282C5598.4 696.349 5605.87 717.816 5605.87 752.482C5605.87 785.016 5597.87 806.749 5579.2 825.549C5567.33 837.282 5558.27 842.216 5541.33 845.682C5532.53 847.416 5520.27 847.816 5461.73 847.816H5392.53V751.149V654.482H5462.4C5520.13 654.482 5534.13 654.882 5542.13 656.482Z" fill="#333333"/>
</svg>
