<svg width="1648" height="317" viewBox="0 0 1648 317" fill="none" xmlns="http://www.w3.org/2000/svg">
<path d="M208.834 0.521271C205.157 1.86111 202.782 5.15326 202.782 8.90479C202.782 10.3212 203.165 12.0438 203.969 14.1875C204.621 15.9485 205.808 19.2406 206.612 21.5757C207.417 23.8726 208.604 27.2413 209.255 29.0405C210.673 32.9069 212.741 39.9888 212.741 40.9458C212.741 41.4435 211.975 41.8646 209.6 42.6302C207.838 43.2044 205.923 43.8935 205.272 44.1997C200.905 46.152 195.159 48.334 194.968 48.1426C194.891 48.0661 194.01 46.1903 193.014 43.97C192.019 41.7497 190.716 38.8787 190.103 37.5771C188.073 33.2131 184.817 24.4085 182.481 16.7906C181.332 13.154 181.025 12.5797 179.263 10.8571C175.701 7.37357 172.215 7.10559 168.04 9.97665C165.052 12.0055 163.75 15.4125 164.516 19.1258C165.282 22.7625 170.76 38.3045 173.02 43.2044C178.038 54.0762 178.65 55.6074 178.191 55.9137C177.923 56.0668 177.578 56.2199 177.425 56.2199C177.31 56.2199 173.939 57.7894 169.994 59.6652C166.048 61.5792 162.639 63.0722 162.409 62.9956C162.18 62.8808 160.801 60.0097 159.345 56.5644C157.124 51.2051 154.097 44.8122 148.007 32.4092C145.517 27.3561 143.142 25.5952 138.852 25.5952C135.711 25.5952 133.145 26.8968 131.536 29.3467C128.932 33.2514 129.276 34.7826 135.099 46.7263C140.576 57.9426 146.245 70.958 145.977 71.6853C145.862 71.9533 144.675 72.7955 143.334 73.5611C136.056 77.6189 131.766 80.0306 128.74 81.8298C126.863 82.9017 125.178 83.6673 124.986 83.5524C124.488 83.2462 121.807 77.8486 119.739 73.0635C118.781 70.8432 116.483 64.5651 114.644 59.1293C112.767 53.6551 110.814 48.5255 110.278 47.7598C109.128 45.9989 106.447 44.3528 104.034 43.8935C100.587 43.281 96.5647 45.5396 94.9176 49.0997C94.4197 50.1715 93.9983 51.7793 93.9983 52.6215C93.9983 56.2582 103.345 81.5235 107.558 89.2563C108.516 91.0172 109.32 92.625 109.32 92.8164C109.282 93.0078 107.635 94.1945 105.643 95.4578C103.651 96.721 99.8205 99.2093 97.1393 100.97C94.458 102.731 92.0831 104.224 91.8916 104.339C91.6618 104.415 91.1638 103.573 90.7808 102.501C90.3977 101.43 88.7506 98.0226 87.1802 94.9218C85.6097 91.8594 82.4688 85.6962 80.2088 81.2556C77.9872 76.815 75.7656 72.6424 75.3059 71.9916C73.3141 69.2354 68.0664 68.0104 64.6957 69.5799C62.6655 70.4987 60.4439 73.0252 59.8693 75.0541C58.95 78.5376 59.3331 79.6095 66.7641 94.1562C73.4673 107.363 76.6082 114.368 76.2252 115.364C76.1486 115.632 74.2717 117.278 72.0884 119.039C69.905 120.761 65.8831 124.13 63.0869 126.542C60.329 128.915 57.9541 130.868 57.8775 130.868C57.7626 130.868 56.7667 129.26 55.7325 127.307C54.66 125.393 53.3193 123.02 52.7831 122.063C51.0594 119.077 45.5436 109.009 43.705 105.373C41.56 101.238 40.181 99.7452 37.8062 98.9413C33.2097 97.3718 28.7281 99.1327 26.698 103.191C25.8553 104.99 25.7404 105.602 25.8936 107.861C26.0851 110.272 26.3532 111 29.8389 117.508C31.9073 121.374 34.5886 126.274 35.776 128.379C37.0018 130.485 39.3766 134.772 41.1003 137.873L44.2413 143.539L41.062 146.869C39.3 148.668 36.4272 151.692 34.6652 153.568L31.4094 156.937L30.7199 156.056C29.3027 154.295 21.8717 141.624 19.4968 136.992C15.3983 128.954 13.4831 127.231 8.77164 127.231C4.86462 127.231 2.8345 128.532 0.574562 132.399C0.229825 132.973 0 134.389 0 135.844C0 138.256 0.0766082 138.485 3.7538 145.223C10.8401 158.162 14.0193 163.483 17.2369 167.694C18.9222 169.837 18.9605 170.541 18.5392 171.254C18.3554 171.565 17.1986 172.976 16.0111 174.814C11.2997 181.972 9.11638 187.715 7.04796 198.433C6.77983 199.85 6.66492 202.529 6.77983 205.132C7.35439 217.076 10.9933 227.642 17.5433 236.063C20.1863 239.509 27.2342 246.169 30.5667 248.351C34.5503 251.031 40.4875 253.787 44.969 255.051C46.9608 255.625 49.2208 256.237 49.9486 256.467C53.3576 257.501 65.4617 257.271 71.0158 256.084C73.1226 255.625 73.3141 255.816 74.5015 259.453C75.9571 263.932 80.6685 276.373 81.9325 279.206C82.2389 279.818 83.005 281.732 83.6179 283.417C85.4948 288.317 88.6357 290.881 92.8109 290.881C95.3773 290.881 96.5647 290.384 98.5182 288.47C100.74 286.326 101.276 285.178 101.391 282.536C101.468 280.584 101.085 279.474 98.2884 272.315C96.5264 267.875 94.7644 263.587 94.3814 262.745C93.5004 260.754 89.7849 249.347 89.7849 248.619C89.7849 248.313 90.7808 247.28 92.0065 246.323C93.1939 245.404 96.0667 242.724 98.4033 240.389C100.702 238.054 102.808 236.14 103.038 236.14C103.842 236.14 109.895 249.385 113.533 259.108C115.64 264.736 118.36 267.147 122.65 267.147C125.523 267.147 127.208 266.458 128.97 264.506C130.77 262.477 131.077 261.865 131.383 259.453C131.613 257.309 131.651 257.462 128.855 249.73C126.748 243.873 119.126 227.45 116.751 223.622C116.445 223.163 116.215 222.512 116.215 222.206C116.215 221.708 127.17 210.951 129.736 208.922C130.655 208.233 130.923 208.157 131.345 208.616C131.958 209.228 135.328 217.076 139.235 226.952C143.028 236.484 145.019 240.963 145.977 242.15L146.82 243.222L146.858 221.746L147.241 175.694C147.241 158.583 147.318 156.056 147.892 154.372C149.156 150.659 151.531 147.903 154.787 146.524C156.434 145.835 158.081 145.797 198.224 145.797C237.438 145.85 238.443 145.65 239.937 145.07C240.885 144.702 240.856 144.036 244.457 142.811C244.457 142.811 249.973 140.974 251.275 140.629C252.577 140.323 254.761 139.634 256.178 139.098C257.595 138.562 258.898 138.217 259.089 138.332C259.281 138.447 260.047 139.71 260.851 141.127C263.417 145.797 262.307 145.414 273.721 145.414C280.616 145.414 283.604 145.299 283.604 144.993C283.604 144.763 283.297 144.113 282.876 143.577C281.612 141.739 275.1 130.753 274.564 129.528C274.104 128.379 274.143 128.303 276.364 125.853C279.314 122.675 283.336 116.895 285.174 113.258C288.315 106.904 290.882 96.8742 290.882 90.7875C290.882 80.9493 288.43 71.4174 283.948 63.6464C280.807 58.2105 279.237 56.1434 274.755 51.8176C266.558 43.8552 259.089 39.9888 246.64 37.156C244.725 36.735 241.967 36.5818 237.064 36.5818H230.131L229.059 32.7155C227.756 28.1983 225.956 22.7242 224.041 17.3649C223.275 15.2594 222.126 12.0821 221.513 10.2829C219.406 4.19623 218.219 2.55017 214.848 0.942383C212.511 -0.167786 210.979 -0.282623 208.834 0.521271Z" fill="#DD0D75"/>
<path d="M163.446 160.921C162.832 161.572 162.793 167.09 162.793 239.324V317L197.624 316.847C227.353 316.732 232.839 316.617 235.332 316.08C243.503 314.394 250.791 312.095 256.392 309.413C259.23 308.033 261.033 306.96 266.135 303.588C267.593 302.63 269.127 301.633 269.549 301.365C271.39 300.292 279.101 292.59 282.055 288.873C283.857 286.65 286.504 282.627 288.039 279.906C290.57 275.307 294.406 266.647 294.828 264.463C294.943 263.926 295.404 262.202 295.826 260.631C298.588 250.437 299.201 235.262 297.283 224.15C295.634 214.531 292.987 206.56 289.151 199.395C281.518 185.216 270.93 175.138 256.238 168.01C251.136 165.519 247.646 164.255 241.431 162.76C232.417 160.576 231.228 160.499 196.128 160.346C165.287 160.231 164.059 160.231 163.446 160.921ZM227.315 190.504C231.726 191.5 237.48 192.957 237.979 193.225C238.286 193.378 240.012 194.221 241.777 195.103C246.265 197.325 247.646 198.322 251.405 202.23C258.271 209.358 261.877 216.83 263.718 227.713C264.409 231.814 264.486 233.538 264.332 240.321C264.102 250.744 262.798 256.914 259.345 264.118C254.934 273.276 247.684 280.097 238.286 284.006C232.11 286.535 229.923 286.803 212.585 286.957L196.934 287.11V238.865C196.934 212.347 197.049 190.504 197.202 190.389C197.586 189.968 225.512 190.083 227.315 190.504Z" fill="#DD0D75"/>
<path d="M311.991 238.644V317H328.807H345.623V238.644V160.289H328.807H311.991V238.644Z" fill="#DD0D75"/>
<path d="M364.854 160.557C364.701 160.672 364.586 195.961 364.586 238.913V317H381.657H398.728L398.805 266.883L398.92 216.805L399.918 217.839C400.493 218.452 403.37 222.36 406.401 226.575C409.393 230.828 412.078 234.468 412.309 234.736C412.577 235.004 413.881 236.844 415.224 238.836C416.567 240.828 418.331 243.242 419.099 244.2C419.866 245.158 421.324 247.112 422.321 248.607C423.357 250.063 424.278 251.365 424.431 251.48C424.546 251.595 426.273 254.009 428.267 256.844C430.262 259.68 432.679 263.052 433.676 264.316C434.636 265.58 436.17 267.726 437.091 269.105C438.011 270.485 439.968 273.205 441.464 275.198C444.38 278.991 444.802 279.566 447.41 283.359C450.748 288.148 452.09 289.796 452.436 289.604C452.589 289.489 454.009 287.65 455.543 285.466C457.077 283.321 458.459 281.481 458.574 281.366C458.727 281.251 459.341 280.409 459.955 279.489C461.758 276.769 462.141 276.232 463.599 274.431C464.366 273.512 466.246 270.945 467.742 268.722C469.277 266.5 472.154 262.438 474.149 259.718C476.182 256.959 478.714 253.473 479.788 251.902C480.901 250.331 483.356 246.997 485.235 244.43C487.154 241.863 490.491 237.227 492.716 234.123C494.941 231.02 497.933 226.882 499.353 224.927C500.811 223.012 502.575 220.483 503.304 219.372C504.033 218.299 504.877 217.379 505.146 217.379C506.028 217.379 506.68 219.525 506.181 220.713C505.874 221.517 505.759 234.621 505.836 269.297L505.951 316.808L522.946 316.923L539.902 317V238.644V160.289H521.603C511.514 160.289 503.074 160.442 502.805 160.595C502.537 160.749 501.348 162.358 500.158 164.121C498.969 165.921 496.399 169.676 494.442 172.55C490.529 178.297 477.218 197.992 475.108 201.287C474.341 202.436 472.883 204.582 471.885 206.076C469.238 209.984 463.522 218.414 457.921 226.767C454.354 232.016 452.819 234.047 452.282 234.047C451.707 234.047 449.558 231.135 444.188 223.127C440.16 217.111 435.057 209.525 432.832 206.268C414.879 179.677 410.659 173.431 406.554 167.377L401.912 160.481L383.498 160.366C373.371 160.327 364.969 160.404 364.854 160.557Z" fill="#DD0D75"/>
<path d="M559.848 160.557C559.695 160.672 559.58 195.961 559.58 238.913V317H576.396H593.212V238.644V160.289H576.664C567.529 160.289 559.962 160.404 559.848 160.557Z" fill="#DD0D75"/>
<path d="M873.127 161.106C863.228 162.178 853.982 164.626 846.961 168.108C837.447 172.776 832.996 175.99 825.707 183.375C819.185 189.994 816.077 194.318 812.125 202.43C806.064 214.826 803.877 226.267 804.376 242.987C804.798 256.838 807.79 267.705 814.658 280.293C816.959 284.502 821.103 289.859 825.745 294.603C837.14 306.235 849.877 312.816 866.95 315.877C870.441 316.527 872.858 316.642 881.452 316.642C887.13 316.642 893.038 316.451 894.535 316.221C898.908 315.609 905.814 314.002 907.963 313.122C909.075 312.701 910.84 312.089 911.876 311.783C915.06 310.865 923.692 306.158 928.488 302.791C935.049 298.162 941.647 291.427 945.868 285.076C950.778 277.691 953.157 272.755 956.15 263.611C959.065 254.772 960.37 239.506 959.104 229.404C957.953 220.145 957.876 219.686 955.843 212.875C954.423 208.054 950.74 200.134 947.786 195.542C947.249 194.701 946.635 193.706 946.405 193.4C944.333 190.109 942.645 187.966 939.499 184.676C932.248 177.138 926.531 173.006 916.863 168.3C911.531 165.698 908.193 164.512 901.747 163.019C892.041 160.724 882.411 160.112 873.127 161.106ZM892.693 187.928C902.323 189.726 909.612 193.782 916.633 201.243C922.043 206.944 926.225 215.783 928.181 225.693C928.948 229.481 928.987 230.744 928.833 240.233C928.68 249.951 928.603 250.908 927.644 254.81C925.956 261.583 923.232 267.896 919.779 272.947C917.976 275.587 911.876 281.479 908.883 283.469C906.428 285.114 900.711 287.793 898.678 288.29C897.911 288.481 895.916 289.017 894.228 289.476C891.696 290.165 889.777 290.356 883.37 290.509C875.198 290.739 874.239 290.624 867.372 288.902C859.353 286.874 853.33 283.316 847.383 277.194C844.084 273.712 842.895 271.99 840.439 267.093C836.372 259.019 834.953 252.515 834.684 240.692C834.339 226.267 836.603 216.625 842.818 206.447C844.774 203.195 847.038 200.669 851.182 196.996C855.287 193.323 862.73 189.726 869.482 188.196C874.853 186.972 886.746 186.819 892.693 187.928Z" fill="#DCDCDC"/>
<path d="M614.398 238.887L614.513 315.377H629.655H644.798L644.913 263.58C644.951 231.652 645.143 211.821 645.334 211.898C645.756 212.051 649.359 216.645 653.231 222.004C654.726 224.033 657.141 227.364 658.598 229.393C660.093 231.422 661.741 233.757 662.316 234.6C662.891 235.442 664.118 237.165 665.076 238.428C665.996 239.691 667.721 242.103 668.91 243.788C672.168 248.42 673.395 250.066 675.657 253.091C676.807 254.584 678.8 257.302 680.065 259.101C681.33 260.9 683.669 264.154 685.24 266.298C686.812 268.442 688.997 271.428 690.032 272.921C695.859 281.19 697.316 283.143 698.772 284.789L700.421 286.588L702.529 283.947C703.679 282.492 705.136 280.578 705.749 279.659C706.401 278.779 707.513 277.209 708.241 276.175C708.969 275.18 710.924 272.462 712.573 270.165C714.221 267.868 717.326 263.542 719.473 260.594C721.62 257.608 726.22 251.215 729.67 246.429C733.158 241.606 736.762 236.59 737.72 235.289C738.678 233.987 740.787 231.078 742.359 228.857C743.93 226.598 746 223.727 746.959 222.54C747.917 221.315 749.374 219.325 750.217 218.1C752.441 214.922 755.009 211.821 755.431 211.821C755.622 211.821 755.776 231.384 755.776 263.695V315.569H770.918H786.06V239.002V162.436H768.848H751.597L749.105 166.149C747.725 168.216 744.85 172.466 742.704 175.643C734.653 187.511 722.693 205.236 704.408 232.418C702.682 235.021 701.034 237.241 700.727 237.356C699.922 237.662 699.271 236.973 696.549 232.915C684.972 215.649 671.977 196.47 663.313 183.683C657.678 175.375 653.039 168.484 653.039 168.331C653.039 168.255 652.081 166.877 650.931 165.307L648.784 162.436H631.572H614.322L614.398 238.887Z" fill="#DCDCDC"/>
<path d="M976.403 239.002V315.569H991.514H1006.63V263.389C1006.63 234.715 1006.78 211.017 1006.97 210.749C1007.28 210.213 1010.07 213.888 1015.96 222.54C1017.61 224.952 1019.56 227.785 1020.32 228.857C1021.09 229.891 1023.08 232.839 1024.8 235.365C1028.13 240.342 1040.71 258.488 1041.9 260.058C1042.78 261.207 1056.09 280.616 1058.92 284.827C1059.99 286.474 1061.22 288.235 1061.6 288.771C1062.44 289.919 1071.39 302.821 1075.14 308.295C1076.67 310.515 1078.51 313.042 1079.2 313.923L1080.5 315.569H1097.52H1114.51V239.002V162.436H1099.4H1084.29V214.999C1084.29 243.941 1084.17 267.715 1084.02 267.83C1083.64 268.212 1082.11 266.298 1077.02 258.91C1074.49 255.234 1069.98 248.688 1066.99 244.362C1064.01 240.036 1060.99 235.633 1060.34 234.6C1059.65 233.528 1057.81 230.924 1056.28 228.742C1054.75 226.56 1052.88 223.842 1052.15 222.732C1051.42 221.622 1050.01 219.516 1049.01 218.061C1045.04 212.357 1044.16 211.094 1041.44 207.036C1039.91 204.7 1037.73 201.599 1036.66 200.145C1035.59 198.652 1032.98 194.976 1030.92 191.914C1028.85 188.851 1026.29 185.099 1025.22 183.53C1024.15 181.96 1023.11 180.429 1022.88 180.123C1022.69 179.778 1021.66 178.285 1020.59 176.83C1019.56 175.337 1017.41 172.198 1015.88 169.901C1014.32 167.566 1012.52 164.962 1011.87 164.044L1010.72 162.436H993.542H976.403V239.002Z" fill="#DCDCDC"/>
<path d="M1178.83 163.317C1171.63 164.658 1165.61 166.995 1158.72 171.131C1153.55 174.234 1147.69 180.094 1144.97 184.844C1140.76 192.352 1139.57 196.986 1139.57 205.988C1139.61 218.245 1141.95 224.144 1150.07 232.417C1154.01 236.439 1155.35 237.55 1159.1 239.772C1161.52 241.189 1165.23 243.027 1167.34 243.794C1169.44 244.56 1171.43 245.364 1171.78 245.556C1172.85 246.13 1187.86 250.88 1190.89 251.607C1196.17 252.91 1207.12 256.74 1209.92 258.272C1213.63 260.341 1216.35 262.792 1217.62 265.205C1218.54 266.929 1218.65 267.58 1218.65 270.606C1218.65 276.007 1216.66 280.144 1212.37 283.668C1206.63 288.417 1200.61 290.333 1191.54 290.333C1186.06 290.333 1184.07 289.988 1178.71 288.188C1173.81 286.54 1166.04 281.369 1160.37 276.007L1156.12 271.947L1152.17 275.126C1149.99 276.85 1147.81 278.535 1147.35 278.841C1146.93 279.148 1144.51 281.063 1141.99 283.055C1139.5 285.085 1136.66 287.307 1135.67 288.034C1134.63 288.724 1133.83 289.413 1133.83 289.566C1133.83 289.911 1139.15 295.006 1142.25 297.649C1149.19 303.547 1158.03 308.489 1168.1 312.127C1173.85 314.157 1176.91 314.924 1183.23 315.881C1187.98 316.571 1199.73 316.341 1204.1 315.46C1205.59 315.153 1207.81 314.732 1209.08 314.464C1212.41 313.813 1220.45 310.863 1224.01 308.948C1233.89 303.701 1240.9 296.806 1245.23 287.996C1250.13 278.037 1250.32 263.099 1245.69 254.021C1244.12 250.956 1241.44 247.547 1237.91 244.177C1234.05 240.423 1231.4 238.546 1226.69 236.133C1219.99 232.724 1216.01 231.192 1200.46 225.982C1182.81 220.122 1177.33 217.709 1173.54 214.146C1170.67 211.465 1169.83 209.473 1169.83 205.298C1169.83 200.625 1171.01 197.561 1174.04 194.535C1177.87 190.666 1182.5 188.713 1189.32 188.023C1195.79 187.41 1199.7 188.215 1206.01 191.394C1210.99 193.922 1213.6 195.799 1217.69 199.783L1221.33 203.306L1222.52 202.311C1223.17 201.736 1224.97 200.319 1226.5 199.17C1228.03 198.021 1230.06 196.45 1230.94 195.722C1231.86 194.995 1233.51 193.654 1234.62 192.773C1238.64 189.517 1242.78 186.031 1242.89 185.802C1242.97 185.534 1235.69 178.294 1233.62 176.609C1231.52 174.885 1225.97 171.553 1221.64 169.446C1210.23 163.892 1203.79 162.398 1191.27 162.436C1184.88 162.475 1182.58 162.628 1178.83 163.317Z" fill="#DCDCDC"/>
<path d="M1255.84 175.261V188.085H1277.26H1298.69L1298.77 251.712L1298.89 315.377L1313.92 315.492L1328.92 315.569V251.827V188.085H1350.16H1371.4V175.261V162.436H1313.62H1255.84V175.261Z" fill="#DCDCDC"/>
<path d="M1385.71 239.002V315.569H1442.06H1498.42V302.553V289.536H1457.21H1416V269.629V249.722H1451C1484.46 249.722 1486.07 249.683 1486.65 249.032C1487.22 248.42 1487.3 246.927 1487.3 236.246C1487.3 225.565 1487.22 224.11 1486.68 223.919C1486.34 223.804 1470.32 223.689 1451.03 223.689H1416V205.887V188.085H1457.21H1498.42V175.261V162.436H1442.06H1385.71V239.002Z" fill="#DCDCDC"/>
<path d="M1518.45 239.002V315.569L1533.52 315.492L1548.54 315.377L1548.66 292.293L1548.74 269.246H1562.34H1575.91L1581.66 276.979C1584.85 281.267 1589.22 287.163 1591.44 290.11C1593.63 293.058 1596.5 297.001 1597.84 298.916C1599.18 300.791 1601.68 304.16 1603.36 306.381C1605.05 308.601 1607.27 311.549 1608.31 312.966L1610.15 315.569H1628.7C1638.9 315.569 1647.26 315.454 1647.26 315.339C1647.26 315.186 1646.64 314.344 1645.91 313.425C1645.18 312.544 1644.57 311.702 1644.57 311.549C1644.57 311.434 1643.42 309.826 1642 308.027C1640.55 306.228 1639.09 304.314 1638.74 303.701C1638.17 302.706 1634.22 297.384 1628.28 289.536C1626.09 286.665 1622.45 281.535 1621.38 279.889C1621.19 279.544 1619.85 277.783 1618.43 275.984C1616.97 274.146 1615.82 272.538 1615.82 272.385C1615.82 272.194 1615.51 271.734 1615.13 271.313C1613.71 269.782 1610.07 264.652 1610.07 264.193C1610.07 263.925 1611.68 262.7 1613.64 261.475C1618.77 258.22 1619.46 257.723 1623.68 253.818C1630.54 247.578 1634.14 242.371 1637.06 234.638C1640.01 226.79 1641.08 216.339 1639.97 205.887C1639.36 200.106 1635.91 189.464 1633.42 185.788C1633.07 185.253 1631.92 183.53 1630.85 181.922C1624.94 173.04 1614.06 165.575 1604.13 163.584C1602.86 163.354 1601.1 162.972 1600.22 162.78C1599.3 162.589 1581.43 162.436 1558.55 162.436H1518.45V239.002ZM1591.75 188.66C1596.35 189.617 1599.07 191.148 1602.48 194.632C1607.92 200.106 1610.07 206.27 1610.07 216.224C1610.07 225.565 1607.77 231.805 1602.4 237.203C1598.99 240.572 1596.39 241.988 1591.52 242.984C1588.99 243.481 1585.46 243.596 1568.63 243.596H1548.74V215.841V188.085H1568.82C1585.42 188.085 1589.45 188.2 1591.75 188.66Z" fill="#DCDCDC"/>
</svg>
