<svg width="227" height="227" viewBox="0 0 227 227" fill="none" xmlns="http://www.w3.org/2000/svg">
<path fill-rule="evenodd" clip-rule="evenodd" d="M44.1463 12.3008C35.3523 3.50689 21.0946 3.5069 12.3007 12.3008C3.50673 21.0947 3.50672 35.3525 12.3007 44.1464L81.7555 113.601L12.298 183.059C3.50409 191.853 3.50409 206.111 12.298 214.904C21.0919 223.698 35.3497 223.698 44.1436 214.904L113.601 145.447L183.059 214.905C191.853 223.699 206.111 223.699 214.905 214.905C223.699 206.111 223.699 191.853 214.905 183.059L145.447 113.601L214.902 44.146C223.696 35.3521 223.696 21.0943 214.902 12.3004C206.108 3.50649 191.85 3.50648 183.056 12.3004L113.601 81.7557L44.1463 12.3008Z" fill="white"/>
<path d="M12.3007 44.1464L15.8362 40.6109L12.3007 44.1464ZM81.7555 113.601L85.2911 110.066L88.8266 113.601L85.2911 117.137L81.7555 113.601ZM12.298 183.059L8.76248 179.523L12.298 183.059ZM113.601 145.447L110.066 141.911L113.601 138.376L117.137 141.911L113.601 145.447ZM183.059 214.905L186.595 211.369L186.595 211.369L183.059 214.905ZM214.905 214.905L218.44 218.44L214.905 214.905ZM214.905 183.059L218.44 179.524L218.44 179.524L214.905 183.059ZM145.447 113.601L141.911 117.137L138.376 113.601L141.911 110.066L145.447 113.601ZM214.902 44.146L218.438 47.6816L214.902 44.146ZM113.601 81.7557L117.137 85.2912L113.601 88.8268L110.066 85.2912L113.601 81.7557ZM8.76513 8.76529C19.5117 -1.98126 36.9353 -1.98126 47.6818 8.76529L40.6107 15.8364C33.7694 8.99504 22.6775 8.99506 15.8362 15.8364L8.76513 8.76529ZM8.76512 47.682C-1.98142 36.9354 -1.98141 19.5118 8.76513 8.76529L15.8362 15.8364C8.99488 22.6777 8.99487 33.7696 15.8362 40.6109L8.76512 47.682ZM78.22 117.137L8.76512 47.682L15.8362 40.6109L85.2911 110.066L78.22 117.137ZM8.76248 179.523L78.22 110.066L85.2911 117.137L15.8335 186.594L8.76248 179.523ZM8.76247 218.44C-1.98407 207.693 -1.98407 190.27 8.76248 179.523L15.8335 186.594C8.99224 193.436 8.99225 204.528 15.8335 211.369L8.76247 218.44ZM47.6792 218.44C36.9326 229.187 19.509 229.187 8.76247 218.44L15.8335 211.369C22.6749 218.21 33.7668 218.21 40.6081 211.369L47.6792 218.44ZM117.137 148.982L47.6792 218.44L40.6081 211.369L110.066 141.911L117.137 148.982ZM179.524 218.44L110.066 148.982L117.137 141.911L186.595 211.369L179.524 218.44ZM218.44 218.44C207.694 229.187 190.27 229.187 179.524 218.44L186.595 211.369C193.436 218.211 204.528 218.211 211.369 211.369L218.44 218.44ZM218.44 179.524C229.187 190.27 229.187 207.694 218.44 218.44L211.369 211.369C218.21 204.528 218.21 193.436 211.369 186.595L218.44 179.524ZM148.982 110.066L218.44 179.524L211.369 186.595L141.911 117.137L148.982 110.066ZM218.438 47.6816L148.982 117.137L141.911 110.066L211.367 40.6105L218.438 47.6816ZM218.438 8.76488C229.184 19.5114 229.184 36.935 218.438 47.6816L211.367 40.6105C218.208 33.7692 218.208 22.6773 211.367 15.8359L218.438 8.76488ZM179.521 8.76488C190.267 -1.98167 207.691 -1.98167 218.438 8.76488L211.367 15.8359C204.525 8.99465 193.433 8.99463 186.592 15.8359L179.521 8.76488ZM110.066 78.2202L179.521 8.76488L186.592 15.8359L117.137 85.2912L110.066 78.2202ZM47.6818 8.76529L117.137 78.2202L110.066 85.2912L40.6107 15.8364L47.6818 8.76529Z" fill="#BEBEBE"/>
</svg>
